<svg xmlns="http://www.w3.org/2000/svg" width="190" height="118" viewBox="0 0 190 118"><g transform="translate(-1230.025 -1218)"><rect width="190" height="118" transform="translate(1230.025 1218)" fill="#f5fef9"/><g transform="translate(1279.359 1232.896)"><g transform="translate(1.338 1.338)"><path d="M46.288,306.454a19.324,19.324,0,0,1-4.342,12.232h0a19.394,19.394,0,0,1-30.1,0h0a19.395,19.395,0,1,1,34.446-12.232Z" transform="translate(-7.5 -237.191)" fill="#eaf6ff"/><path d="M325.848,306.454a19.324,19.324,0,0,1-4.342,12.232h0a19.394,19.394,0,0,1-30.1,0h0a19.395,19.395,0,1,1,34.446-12.232Z" transform="translate(-237.191 -237.191)" fill="#eaf6ff"/><path d="M325.848,26.894a19.324,19.324,0,0,1-4.342,12.232h0a19.394,19.394,0,0,1-30.1,0h0a19.395,19.395,0,1,1,34.446-12.232Z" transform="translate(-237.191 -7.5)" fill="#eaf6ff"/><circle cx="19.394" cy="19.394" r="19.394" transform="translate(0 0)" fill="#eaf6ff"/></g><path d="M61.951,447.186a19.394,19.394,0,0,1-30.1,0l10.892-3.726h8.316Z" transform="translate(-26.168 -364.354)" fill="#ffe177"/><path d="M49.576,454.165a19.417,19.417,0,0,1-17.726-6.978l10.892-3.726h5.352L37.2,447.186a19.364,19.364,0,0,0,12.375,6.978Z" transform="translate(-26.168 -364.354)" fill="#ffd15b"/><path d="M341.511,447.186a19.394,19.394,0,0,1-30.1,0L322.3,443.46h8.316Z" transform="translate(-255.859 -364.354)" fill="#aee69c"/><path d="M329.136,454.165a19.417,19.417,0,0,1-17.726-6.978L322.3,443.46h5.352l-10.892,3.726a19.364,19.364,0,0,0,12.375,6.978Z" transform="translate(-255.859 -364.354)" fill="#89daa4"/><path d="M341.511,167.626a19.394,19.394,0,0,1-30.1,0L322.3,163.9h8.316Z" transform="translate(-255.859 -134.663)" fill="#ea576b"/><path d="M329.136,174.6a19.417,19.417,0,0,1-17.726-6.978L322.3,163.9h5.352l-10.892,3.726A19.364,19.364,0,0,0,329.136,174.6Z" transform="translate(-255.859 -134.663)" fill="#fd4755"/><path d="M61.951,167.626a19.394,19.394,0,0,1-30.1,0L42.742,163.9h8.316Z" transform="translate(-26.168 -134.663)" fill="#8ac9fe"/><path d="M49.576,174.6a19.417,19.417,0,0,1-17.726-6.978L42.742,163.9h5.352L37.2,167.626A19.364,19.364,0,0,0,49.576,174.6Z" transform="translate(-26.168 -134.663)" fill="#60b7ff"/><path d="M76.221,82.041V90.7a6.591,6.591,0,0,0,6.591,6.591H83.9A6.591,6.591,0,0,0,90.492,90.7V82.041a2.018,2.018,0,0,0-2.018-2.018H78.239A2.018,2.018,0,0,0,76.221,82.041Z" transform="translate(-62.624 -65.748)" fill="#ffcebf"/><path d="M85.139,97.17a6.45,6.45,0,0,1-1.24.118H82.811A6.591,6.591,0,0,1,76.22,90.7V82.039a2.02,2.02,0,0,1,2.019-2.019h3.568a2.02,2.02,0,0,0-2.019,2.019V90.7A6.59,6.59,0,0,0,85.139,97.17Z" transform="translate(-62.623 -65.746)" fill="#ffb09e"/><path d="M76.221,60.936h2.861a3.965,3.965,0,0,0,2.882-1.242l1.957-2.071,1.271,2.217a2.18,2.18,0,0,0,1.891,1.1h3.408V56.483A4.893,4.893,0,0,0,85.6,51.59H81.114a4.893,4.893,0,0,0-4.893,4.893Z" transform="translate(-62.624 -42.387)" fill="#68748f"/><path d="M81.113,51.59h3.568a4.893,4.893,0,0,0-4.893,4.893v4.388a3.868,3.868,0,0,1-.706.064H76.22V56.483A4.893,4.893,0,0,1,81.113,51.59Z" transform="translate(-62.623 -42.387)" fill="#5d6980"/><path d="M355.781,82.041V90.7a6.591,6.591,0,0,0,6.591,6.591h1.089a6.591,6.591,0,0,0,6.591-6.591V82.041a2.018,2.018,0,0,0-2.018-2.018H357.8A2.018,2.018,0,0,0,355.781,82.041Z" transform="translate(-292.315 -65.748)" fill="#ffcebf"/><path d="M364.7,97.17a6.45,6.45,0,0,1-1.24.118h-1.088A6.591,6.591,0,0,1,355.78,90.7V82.039A2.02,2.02,0,0,1,357.8,80.02h3.568a2.02,2.02,0,0,0-2.019,2.019V90.7A6.59,6.59,0,0,0,364.7,97.17Z" transform="translate(-292.314 -65.746)" fill="#ffb09e"/><path d="M355.781,60.936h2.861a3.965,3.965,0,0,0,2.882-1.242l1.957-2.071,1.271,2.217a2.18,2.18,0,0,0,1.891,1.1h3.408V56.483a4.893,4.893,0,0,0-4.893-4.893h-4.485a4.893,4.893,0,0,0-4.893,4.893Z" transform="translate(-292.315 -42.387)" fill="#68748f"/><path d="M360.673,51.59h3.568a4.893,4.893,0,0,0-4.893,4.893v4.388a3.868,3.868,0,0,1-.706.064H355.78V56.483A4.893,4.893,0,0,1,360.673,51.59Z" transform="translate(-292.314 -42.387)" fill="#5d6980"/><path d="M76.221,361.6v8.658a6.591,6.591,0,0,0,6.591,6.591H83.9a6.591,6.591,0,0,0,6.591-6.591V361.6a2.018,2.018,0,0,0-2.018-2.018H78.239A2.018,2.018,0,0,0,76.221,361.6Z" transform="translate(-62.624 -295.439)" fill="#ffcebf"/><path d="M85.139,376.73a6.45,6.45,0,0,1-1.24.118H82.811a6.591,6.591,0,0,1-6.591-6.591V361.6a2.02,2.02,0,0,1,2.019-2.019h3.568a2.02,2.02,0,0,0-2.019,2.019v8.657A6.59,6.59,0,0,0,85.139,376.73Z" transform="translate(-62.623 -295.436)" fill="#ffb09e"/><path d="M76.221,340.5h2.861a3.965,3.965,0,0,0,2.882-1.242l1.957-2.071,1.271,2.217a2.18,2.18,0,0,0,1.891,1.1h3.408v-4.453A4.893,4.893,0,0,0,85.6,331.15H81.114a4.893,4.893,0,0,0-4.893,4.893Z" transform="translate(-62.624 -272.078)" fill="#68748f"/><path d="M81.113,331.15h3.568a4.893,4.893,0,0,0-4.893,4.893v4.388a3.865,3.865,0,0,1-.706.064H76.22v-4.452A4.893,4.893,0,0,1,81.113,331.15Z" transform="translate(-62.623 -272.078)" fill="#5d6980"/><path d="M355.781,361.6v8.658a6.591,6.591,0,0,0,6.591,6.591h1.089a6.591,6.591,0,0,0,6.591-6.591V361.6a2.018,2.018,0,0,0-2.018-2.018H357.8A2.018,2.018,0,0,0,355.781,361.6Z" transform="translate(-292.315 -295.439)" fill="#ffcebf"/><path d="M364.7,376.73a6.45,6.45,0,0,1-1.24.118h-1.088a6.591,6.591,0,0,1-6.591-6.591V361.6a2.02,2.02,0,0,1,2.019-2.019h3.568a2.02,2.02,0,0,0-2.019,2.019v8.657A6.59,6.59,0,0,0,364.7,376.73Z" transform="translate(-292.314 -295.436)" fill="#ffb09e"/><path d="M355.781,340.5h2.861a3.965,3.965,0,0,0,2.882-1.242l1.957-2.071,1.271,2.217a2.18,2.18,0,0,0,1.891,1.1h3.408v-4.453a4.893,4.893,0,0,0-4.893-4.893h-4.485a4.893,4.893,0,0,0-4.893,4.893Z" transform="translate(-292.315 -272.078)" fill="#68748f"/><path d="M360.673,331.15h3.568a4.893,4.893,0,0,0-4.893,4.893v4.388a3.865,3.865,0,0,1-.706.064H355.78v-4.452A4.893,4.893,0,0,1,360.673,331.15Z" transform="translate(-292.314 -272.078)" fill="#5d6980"/><path d="M91.333,70.6A20.763,20.763,0,0,0,73.612,50.089l3.476-3.476A1.338,1.338,0,1,0,75.2,44.721l-3.257,3.257V41.42A20.908,20.908,0,0,0,91.1,23.846a1.338,1.338,0,0,0-2.646-.4,18.011,18.011,0,0,1-3.277,7.94L78,28.931a7.877,7.877,0,0,0,1.076-3.98V14.1a6.238,6.238,0,0,0-6.231-6.231H68.359A6.238,6.238,0,0,0,62.128,14.1V24.951a7.877,7.877,0,0,0,1.076,3.98l-7.179,2.456a18.113,18.113,0,0,1-3.48-10.655h0a18.058,18.058,0,0,1,35.91-2.715,1.338,1.338,0,0,0,2.646-.4,20.734,20.734,0,0,0-41.012.1l-3.476-3.476a1.338,1.338,0,0,0-1.892,1.892l3.257,3.257H41.419A20.731,20.731,0,0,0,0,20.732,21,21,0,0,0,17.722,41.244l-3.477,3.476a1.338,1.338,0,1,0,1.892,1.892l3.257-3.257v6.558a20.631,20.631,0,0,0-9.821,3.211,1.338,1.338,0,1,0,1.442,2.254A18.06,18.06,0,0,1,38.788,70.6h0a18.112,18.112,0,0,1-3.48,10.655L28.129,78.8a7.877,7.877,0,0,0,1.076-3.98V63.965a6.238,6.238,0,0,0-6.231-6.231H18.489a6.238,6.238,0,0,0-6.231,6.231V74.82a7.877,7.877,0,0,0,1.076,3.98L6.155,81.256a18.053,18.053,0,0,1,.768-22.288,1.338,1.338,0,1,0-2.045-1.725,20.73,20.73,0,1,0,36.36,16.364l3.482,3.482A1.338,1.338,0,0,0,46.613,75.2l-3.257-3.257h6.562A20.883,20.883,0,0,0,67.37,91.083a1.338,1.338,0,0,0,.415-2.643,17.989,17.989,0,0,1-9.875-5l7.17-2.453a9.415,9.415,0,0,0,11.042,0l7.171,2.453a17.96,17.96,0,0,1-10.077,5.03,1.338,1.338,0,0,0,.19,2.662C83.395,91.132,91.333,81.7,91.333,70.6ZM70.6,38.788a17.978,17.978,0,0,1-12.7-5.217l7.174-2.454a9.415,9.415,0,0,0,11.042,0L83.3,33.571A17.979,17.979,0,0,1,70.6,38.788Zm-5.8-18.9h1.523A5.923,5.923,0,0,0,70.9,17.464a4.039,4.039,0,0,0,3.427,2.423H76.4v5.064c0,6.99-11.6,6.99-11.6,0Zm0-5.791a3.559,3.559,0,0,1,3.555-3.555h4.485A3.559,3.559,0,0,1,76.4,14.1v3.115h-2.07a.845.845,0,0,1-.731-.423L72.326,14.57a1.339,1.339,0,0,0-2.133-.253l-1.957,2.072a2.637,2.637,0,0,1-1.909.823H64.8V14.1ZM20.732,2.676A18.046,18.046,0,0,1,35.3,31.384l-7.171-2.453a7.877,7.877,0,0,0,1.076-3.98V14.1a6.238,6.238,0,0,0-6.231-6.231H18.489A6.238,6.238,0,0,0,12.259,14.1V24.951a7.877,7.877,0,0,0,1.076,3.98L6.163,31.384A18.046,18.046,0,0,1,20.732,2.676Zm0,36.112a18,18,0,0,1-12.685-5.22l7.164-2.451a9.415,9.415,0,0,0,11.042,0l7.164,2.451a18,18,0,0,1-12.685,5.22Zm-4.274-18.9a5.923,5.923,0,0,0,4.574-2.423,4.038,4.038,0,0,0,3.427,2.423h2.07v5.064c0,6.99-11.6,6.99-11.6,0V19.887Zm-1.523-2.676V14.1a3.559,3.559,0,0,1,3.555-3.555h4.485A3.559,3.559,0,0,1,26.529,14.1v3.115h-2.07a.844.844,0,0,1-.731-.423L22.457,14.57a1.339,1.339,0,0,0-2.133-.253l-1.957,2.071a2.638,2.638,0,0,1-1.909.823H14.935Zm7.135,32.7V43.356l3.257,3.257a1.338,1.338,0,1,0,1.892-1.892l-3.477-3.476A21,21,0,0,0,41.419,22.07h6.558l-3.257,3.257a1.338,1.338,0,0,0,1.892,1.892l3.482-3.482A20.888,20.888,0,0,0,69.263,41.42v6.558l-3.257-3.257a1.338,1.338,0,1,0-1.892,1.892l3.476,3.476A20.768,20.768,0,0,0,49.914,69.264H43.356l3.257-3.257a1.338,1.338,0,0,0-1.892-1.892l-3.476,3.476A20.769,20.769,0,0,0,22.07,49.914ZM14.934,74.82V69.756h1.523a5.924,5.924,0,0,0,4.574-2.423,4.038,4.038,0,0,0,3.427,2.423h2.07V74.82C26.529,81.81,14.934,81.81,14.934,74.82Zm0-10.855a3.559,3.559,0,0,1,3.555-3.555h4.485a3.559,3.559,0,0,1,3.555,3.555V67.08h-2.07a.844.844,0,0,1-.731-.423l-1.271-2.217a1.339,1.339,0,0,0-2.133-.253l-1.957,2.071a2.638,2.638,0,0,1-1.909.823H14.935V63.965Zm5.8,24.692a17.978,17.978,0,0,1-12.7-5.217l7.174-2.454a9.415,9.415,0,0,0,11.042,0l7.174,2.454a17.979,17.979,0,0,1-12.7,5.217ZM70.6,52.545A18.056,18.056,0,0,1,85.178,81.256L78,78.8a7.877,7.877,0,0,0,1.076-3.98V63.965a6.238,6.238,0,0,0-6.231-6.231H68.359a6.238,6.238,0,0,0-6.231,6.231V74.82A7.877,7.877,0,0,0,63.2,78.8l-7.179,2.456A18.055,18.055,0,0,1,70.6,52.545Zm5.8,11.42V67.08h-2.07a.844.844,0,0,1-.731-.423l-1.271-2.217a1.339,1.339,0,0,0-2.133-.253l-1.957,2.071a2.637,2.637,0,0,1-1.909.823H64.8V63.965a3.559,3.559,0,0,1,3.555-3.555h4.485A3.559,3.559,0,0,1,76.4,63.965ZM70.057,80.073A5.259,5.259,0,0,1,64.8,74.82V69.756h1.523A5.923,5.923,0,0,0,70.9,67.333a4.038,4.038,0,0,0,3.427,2.423H76.4V74.82C76.4,78.227,73.171,80.264,70.057,80.073Z"/></g></g></svg>