<svg xmlns="http://www.w3.org/2000/svg" width="295" height="120" viewBox="0 0 295 120"><g transform="translate(-180.025 -396)"><rect width="295" height="120" transform="translate(180.025 396)" fill="#f6edfb"/><g transform="translate(284.999 421.949)"><path d="M81.429,48.714,78.064,56.58l-1.014,8.5-6.855,5.12-5.12,6.855-8.5,1.014-7.865,3.365-7.865-3.365-8.5-1.014-5.12-6.855-6.855-5.12-1.014-8.5L16,48.714l3.365-7.865,1.014-8.5,6.855-5.12,5.12-6.855,8.5-1.014L48.714,16l7.865,3.365,8.5,1.014,5.12,6.855,6.855,5.12,1.014,8.5Z" transform="translate(-13.663 -13.663)" fill="#ffda44"/><path d="M161.883,101.209h-1.168a3.505,3.505,0,1,1,0,7.01h-2.337a3.505,3.505,0,0,1,0,7.01H128V87.189h2.337a10.515,10.515,0,0,0,10.515-10.515V72h2.337a4.673,4.673,0,0,1,4.673,4.673V87.189h12.653a3.635,3.635,0,0,1,3.692,3.248,3.505,3.505,0,0,1-3.239,3.753q-.127.009-.255.009h.97a3.635,3.635,0,0,1,3.692,3.248,3.505,3.505,0,0,1-3.239,3.753Q162.01,101.209,161.883,101.209Z" transform="translate(-109.306 -61.484)" fill="#ffede8"/><path d="M12.673,160H25.526v32.714H22.02l-9.347-3.505,1.168-9.347L8,171.684l5.842-8.179Z" transform="translate(-6.831 -136.632)" fill="#006df0"/><path d="M69.869,34.35l-5.375-7.188,1.069-8.918a1.169,1.169,0,0,0-.7-1.214L56.6,13.508l-3.53-8.263a1.168,1.168,0,0,0-1.214-.7L42.94,5.614,35.752.234a1.169,1.169,0,0,0-1.4,0l-7.188,5.38-8.917-1.07a1.169,1.169,0,0,0-1.214.7l-3.524,8.263L5.246,17.03a1.168,1.168,0,0,0-.7,1.214l1.069,8.918L.234,34.35a1.169,1.169,0,0,0,0,1.4L5.615,42.94l-1.07,8.918a1.168,1.168,0,0,0,.7,1.214l8.26,3.523,3.524,8.263a1.168,1.168,0,0,0,1.214.7l8.918-1.07,7.188,5.38a1.169,1.169,0,0,0,1.4,0l7.188-5.375,8.917,1.07a1.169,1.169,0,0,0,1.214-.7L56.6,56.6l8.262-3.523a1.169,1.169,0,0,0,.7-1.214L64.494,42.94l5.375-7.188a1.169,1.169,0,0,0,0-1.4ZM6.968,51.266,7.99,42.754a1.168,1.168,0,0,0-.224-.84L2.628,35.051l5.141-6.863a1.168,1.168,0,0,0,.224-.84l-.34-2.812h9.873V54.914H15.246a1.16,1.16,0,0,0-.39-.283Zm55.369-9.347a1.168,1.168,0,0,0-.224.84l1.021,8.512-7.888,3.365a1.168,1.168,0,0,0-.617.616l-3.364,7.888-8.512-1.022a1.168,1.168,0,0,0-.839.225l-6.864,5.133-6.864-5.141a1.168,1.168,0,0,0-.7-.234,1.135,1.135,0,0,0-.139.008l-8.512,1.022-2.508-5.88h3.535V54.914H49.072a4.674,4.674,0,0,0,3.883-7.272,4.673,4.673,0,0,0,2.032-7.416,4.748,4.748,0,0,0,.894-.7,4.613,4.613,0,0,0-.927-7.271,4.645,4.645,0,0,0,1.115-3.379,4.79,4.79,0,0,0-4.858-4.339H39.725V15.189a5.849,5.849,0,0,0-5.842-5.842H31.546a1.168,1.168,0,0,0-1.168,1.168v4.673a9.358,9.358,0,0,1-9.347,9.347H19.863V22.2H7.373l-.4-3.363,7.888-3.365a1.168,1.168,0,0,0,.617-.616l3.364-7.888,8.512,1.022a1.159,1.159,0,0,0,.839-.225l6.864-5.137,6.864,5.141a1.161,1.161,0,0,0,.839.225l8.512-1.022,3.365,7.888a1.169,1.169,0,0,0,.616.616l7.888,3.365-1.021,8.512a1.168,1.168,0,0,0,.224.84l5.137,6.86ZM38.557,26.873H51.21a2.481,2.481,0,0,1,2.527,2.168,2.29,2.29,0,0,1-.678,1.819,2.317,2.317,0,0,1-1.651.686H49.072a1.168,1.168,0,1,0,0,2.337h3.306a2.481,2.481,0,0,1,2.527,2.169,2.29,2.29,0,0,1-.678,1.819,2.317,2.317,0,0,1-1.651.686H49.072a1.168,1.168,0,1,0,0,2.337h2.337a2.337,2.337,0,1,1,0,4.673H47.9a1.168,1.168,0,1,0,0,2.337h1.168a2.337,2.337,0,1,1,0,4.673H19.863v-25.7h1.168A11.7,11.7,0,0,0,32.715,15.189V11.684h1.168a3.505,3.505,0,0,1,3.505,3.505V25.7a1.168,1.168,0,0,0,1.168,1.168Z" fill="#231f20"/></g></g></svg>