<svg xmlns="http://www.w3.org/2000/svg" width="86" height="86" viewBox="0 0 86 86"><g transform="translate(-495.051 -3751)"><circle cx="43" cy="43" r="43" transform="translate(495.051 3751)" fill="#dafeea"/><g transform="translate(523.025 3773.437)"><path d="M34.122,1H22.537a.819.819,0,0,0-.819.819V3.824H14.123a.819.819,0,0,0-.819.819V40.308a.819.819,0,0,0,.819.819H42.536a.819.819,0,0,0,.819-.819V4.643a.819.819,0,0,0-.819-.819H34.941V1.819A.819.819,0,0,0,34.122,1ZM23.356,2.638H33.3V6.5H23.356ZM41.717,5.462V39.489H14.942V5.462h6.776V7.315a.819.819,0,0,0,.819.819H34.122a.819.819,0,0,0,.819-.819V5.462Z" transform="translate(-13.304 -1)" fill="#72b08d"/><path d="M37.2,31.774a8.875,8.875,0,1,0,8.875,8.875A8.885,8.885,0,0,0,37.2,31.774Zm0,16.112a7.237,7.237,0,1,1,7.237-7.237A7.245,7.245,0,0,1,37.2,47.886Z" transform="translate(-22.175 -19.173)" fill="#72b08d"/><path d="M46.628,46.03l-4.774,4.56-2.471-2.47a.819.819,0,1,0-1.158,1.158l3.037,3.037a.818.818,0,0,0,1.144.013l5.353-5.113a.819.819,0,1,0-1.131-1.184Z" transform="translate(-27.879 -27.459)" fill="#72b08d"/><path d="M23.887,18.4a.819.819,0,0,0-.819.819v4.735a.819.819,0,0,0,1.638,0V19.216A.819.819,0,0,0,23.887,18.4Z" transform="translate(-19.07 -11.274)" fill="#72b08d"/><path d="M23.887,38.5a.819.819,0,0,0-.819.819v.44a.819.819,0,0,0,1.638,0v-.44A.819.819,0,0,0,23.887,38.5Z" transform="translate(-19.07 -23.147)" fill="#72b08d"/></g></g></svg>