<svg xmlns="http://www.w3.org/2000/svg" width="86" height="86" viewBox="0 0 86 86"><g transform="translate(-495.051 -3543)"><circle cx="43" cy="43" r="43" transform="translate(495.051 3543)" fill="#dafeea"/><g transform="translate(511.918 3567.014)"><path d="M26.133,10A26.162,26.162,0,0,0,0,36.133a2.613,2.613,0,0,0,2.613,2.613H9.582A2.613,2.613,0,0,0,12.2,36.133,13.954,13.954,0,0,1,26.133,22.2a13.75,13.75,0,0,1,7.041,1.929l-7.083,4.169a7.84,7.84,0,1,0,7.882,7.882l4.171-7.083a13.75,13.75,0,0,1,1.927,7.041,2.613,2.613,0,0,0,2.613,2.613h6.969a2.613,2.613,0,0,0,2.613-2.613A26.162,26.162,0,0,0,26.133,10ZM9.524,18.293a24.3,24.3,0,0,1,15.737-6.529V20.5A15.593,15.593,0,0,0,15.7,24.464Zm.929,17.84A.871.871,0,0,1,9.582,37H2.613a.871.871,0,0,1-.871-.871A24.294,24.294,0,0,1,8.293,19.524L14.464,25.7A15.6,15.6,0,0,0,10.453,36.133ZM27,20.487V11.764a24.3,24.3,0,0,1,15.737,6.529l-2,2a1.735,1.735,0,0,0-1.349.169l-4.534,2.669A15.451,15.451,0,0,0,27,20.487Zm13.3,1.505L33.514,33.519a7.865,7.865,0,0,0-4.759-4.763ZM26.133,42.23a6.1,6.1,0,1,1,6.1-6.1A6.1,6.1,0,0,1,26.133,42.23ZM49.652,37H42.683a.871.871,0,0,1-.871-.871,15.472,15.472,0,0,0-2.681-8.723L41.8,22.873a1.742,1.742,0,0,0,.168-1.347l2-2a24.294,24.294,0,0,1,6.549,16.61A.871.871,0,0,1,49.652,37Z" transform="translate(0 -10)" fill="#72b08d"/><path d="M27.742,38.742v-.871a.871.871,0,1,0-1.742,0v.871a.871.871,0,0,0,1.742,0Z" transform="translate(-3.352 -13.481)" fill="#72b08d"/><path d="M32.871,37a.871.871,0,0,0-.871.871v.871a.871.871,0,1,0,1.742,0v-.871A.871.871,0,0,0,32.871,37Z" transform="translate(-4.125 -13.481)" fill="#72b08d"/><path d="M30.882,42.29a1.8,1.8,0,0,1-2.6,0,.871.871,0,1,0-1.3,1.162,3.484,3.484,0,0,0,5.193,0,.871.871,0,1,0-1.3-1.162Z" transform="translate(-3.45 -14.125)" fill="#72b08d"/></g></g></svg>