<svg xmlns="http://www.w3.org/2000/svg" width="86" height="86" viewBox="0 0 86 86"><g transform="translate(-495.051 -3431)"><circle cx="43" cy="43" r="43" transform="translate(495.051 3431)" fill="#dafeea"/><g transform="translate(513.051 3449.809)"><path d="M183.328,272.371a2.663,2.663,0,0,0,2.66-2.66v-3.465a.732.732,0,0,0-1.464,0v3.465a1.2,1.2,0,0,1-1.2,1.2h-.935a.732.732,0,1,0,0,1.464Z" transform="translate(-163.926 -243.168)" fill="#72b08d"/><path d="M155.464,356.337a5.317,5.317,0,0,0,.285,1.733.732.732,0,1,0,1.385-.476,3.856,3.856,0,0,1-.205-1.257c0-1.686,1.032-3.058,2.3-3.058s2.3,1.372,2.3,3.058-1.032,3.058-2.3,3.058a1.732,1.732,0,0,1-.286-.024.732.732,0,0,0-.242,1.444,3.2,3.2,0,0,0,.528.044c2.076,0,3.765-2.029,3.765-4.523s-1.689-4.523-3.765-4.523S155.464,353.843,155.464,356.337Z" transform="translate(-140.286 -321.042)" fill="#72b08d"/><path d="M316.575,59.043l1.072-1.072a.732.732,0,0,0-1.036-1.035l-1.072,1.072a.732.732,0,0,0,1.036,1.035Z" transform="translate(-284.541 -54.759)" fill="#72b08d"/><path d="M288.016,39.523a.732.732,0,0,0,.9-.518l.392-1.465a.732.732,0,1,0-1.415-.379l-.392,1.465A.732.732,0,0,0,288.016,39.523Z" transform="translate(-259.408 -36.618)" fill="#72b08d"/><path d="M331.428,92.844a.732.732,0,0,0,.9.518l1.465-.392a.732.732,0,0,0-.379-1.415l-1.465.392A.732.732,0,0,0,331.428,92.844Z" transform="translate(-299.049 -86.169)" fill="#72b08d"/><path d="M49.267,92.3A.732.732,0,0,0,50,91.567v-7.3a3.055,3.055,0,0,0-2.9-3.058,2.979,2.979,0,0,0-1.638.42V79.791a3.055,3.055,0,0,0-2.9-3.058,2.971,2.971,0,0,0-1.66.433,3.05,3.05,0,0,0-2.877-2.692,3,3,0,0,0-3.087,2.688,2.973,2.973,0,0,0-1.654-.429,2.93,2.93,0,0,0-1.068.24,14.24,14.24,0,0,0-2.911-4.6,14.244,14.244,0,0,0-17.977-2.289.732.732,0,1,0,.783,1.237,12.775,12.775,0,0,1,19.567,11.6l-.752,12.03a12.019,12.019,0,0,1-23.991,0l-.752-12.03a12.652,12.652,0,0,1,3.435-9.538.732.732,0,0,0-1.068-1A14.1,14.1,0,0,0,4.726,83.013l.113,1.806A3.765,3.765,0,0,0,.075,89.166L.7,92.3a5.376,5.376,0,0,0,4.964,4.3,13.481,13.481,0,0,0,25.311,3.659l2.217,2.217a9.655,9.655,0,0,0,.942.843v3.145a1.222,1.222,0,0,0,1.22,1.22H45.723a1.222,1.222,0,0,0,1.22-1.22v-3.741A9.717,9.717,0,0,0,50,95.61v-.627a.732.732,0,1,0-1.464,0v.627a8.266,8.266,0,0,1-2.607,6.058,1.447,1.447,0,0,0-.449,1.047v3.506H35.6v-2.9a1.452,1.452,0,0,0-.557-1.148,8.453,8.453,0,0,1-.809-.725L31.6,98.816a13.38,13.38,0,0,0,.6-2.215,5.381,5.381,0,0,0,4.654-3.288,3.622,3.622,0,0,1,3.013,3.552,3.576,3.576,0,0,1-1.054,2.546.732.732,0,0,0,1.036,1.035,5.066,5.066,0,0,0-2.6-8.551l.546-2.729a3.727,3.727,0,0,0-1.2-3.561q-.1-.088-.2-.169V77.472a1.535,1.535,0,0,1,1.589-1.535,1.579,1.579,0,0,1,1.483,1.595V88.805a.732.732,0,0,0,1.464,0V79.731A1.536,1.536,0,0,1,42.515,78.2,1.58,1.58,0,0,1,44,79.791V88.8a.732.732,0,1,0,1.464,0V84.2a1.536,1.536,0,0,1,1.589-1.535,1.579,1.579,0,0,1,1.483,1.595v7.3A.733.733,0,0,0,49.267,92.3ZM2.138,92.013l-.627-3.135a2.3,2.3,0,0,1,2.983-2.633l.443.148.541,8.65c0,.024,0,.048,0,.072a3.908,3.908,0,0,1-3.344-3.1Zm34.22-3.135-.627,3.135a3.908,3.908,0,0,1-3.344,3.1l0-.072.541-8.65.443-.148a2.3,2.3,0,0,1,2.983,2.634Zm-3.328-4.06.113-1.806a14.284,14.284,0,0,0-.463-4.637,1.472,1.472,0,0,1,.655-.18,1.535,1.535,0,0,1,1.589,1.535v5.016A3.744,3.744,0,0,0,33.031,84.818Z" transform="translate(0 -64.835)" fill="#72b08d"/></g></g></svg>