<svg xmlns="http://www.w3.org/2000/svg" width="58.949" height="50.89" viewBox="0 0 58.949 50.89"><path d="M63.11,47.8h-54A1.612,1.612,0,0,1,7.5,46.185V9.112A1.612,1.612,0,0,1,9.112,7.5h54a1.612,1.612,0,0,1,1.612,1.612V46.185A1.612,1.612,0,0,1,63.11,47.8Zm0,0" transform="translate(-6.636 -6.636)" fill="#5788a1"/><path d="M463.954,7.5H460.5a1.612,1.612,0,0,1,1.612,1.612V46.185A1.612,1.612,0,0,1,460.5,47.8h3.454a1.612,1.612,0,0,0,1.612-1.612V9.112A1.612,1.612,0,0,0,463.954,7.5Zm0,0" transform="translate(-407.48 -6.636)" fill="#507d94"/><path d="M37.5,70.429V37.961a.46.46,0,0,1,.461-.461H87.354a.46.46,0,0,1,.461.461V70.429a.46.46,0,0,1-.461.461H37.961A.46.46,0,0,1,37.5,70.429Zm0,0" transform="translate(-33.182 -33.182)" fill="#80d8ff"/><path d="M443.954,37.5H440.5a.46.46,0,0,1,.461.461V70.429a.46.46,0,0,1-.461.461h3.454a.46.46,0,0,0,.461-.461V37.961A.46.46,0,0,0,443.954,37.5Zm0,0" transform="translate(-389.783 -33.182)" fill="#40c4ff"/><path d="M406.727,362.105A1.727,1.727,0,0,1,405,360.378V357.5h3.454v2.878A1.727,1.727,0,0,1,406.727,362.105Zm0,0" transform="translate(-358.37 -316.339)" fill="#5788a1"/><path d="M78.727,362.105A1.727,1.727,0,0,1,77,360.378V357.5h3.454v2.878A1.727,1.727,0,0,1,78.727,362.105Zm0,0" transform="translate(-68.135 -316.339)" fill="#5788a1"/><path d="M63,407.954H9.227a1.727,1.727,0,1,1,0-3.454H63a1.727,1.727,0,1,1,0,3.454Zm0,0" transform="translate(-6.636 -357.928)" fill="#e6e6e6"/><path d="M462.954,404.5H459.5a1.727,1.727,0,1,1,0,3.454h3.454a1.727,1.727,0,1,0,0-3.454Zm0,0" transform="translate(-406.595 -357.928)" fill="#ccc"/><path d="M74,74.012H85.974v9.441H74Zm0,0" transform="translate(-65.48 -65.49)" fill="#ff4b22"/><path d="M204,74.012h11.974v9.441H204Zm0,0" transform="translate(-180.512 -65.49)" fill="#40c4ff"/><path d="M74,202H85.974v9.441H74Zm0,0" transform="translate(-65.48 -178.743)" fill="#ffd740"/><path d="M204,202h11.974v9.441H204Zm0,0" transform="translate(-180.512 -178.743)" fill="#d4e157"/><path d="M335.793,74.012h12.623V98.189H335.793Zm0,0" transform="translate(-297.131 -65.49)" fill="#ff4b22"/><g transform="translate(42.139 17.27)"><path d="M366.5,150.41v4.936c0,.338.557.531.945.327l4.693-2.468a.345.345,0,0,0,0-.653l-4.693-2.468C367.057,149.879,366.5,150.072,366.5,150.41Zm0,0" transform="translate(-366.442 -150)" fill="#e6e6e6"/><path d="M367,150.41v4.936c0,.338.546.531.926.327l4.6-2.468a.347.347,0,0,0,0-.653l-4.6-2.468C367.546,149.879,367,150.072,367,150.41Zm0,0" transform="translate(-366.885 -150)" fill="#e6e6e6"/><path d="M367.5,150.41v4.936c0,.338.535.531.908.327l4.509-2.468a.35.35,0,0,0,0-.653l-4.509-2.468C368.035,149.879,367.5,150.072,367.5,150.41Zm0,0" transform="translate(-367.327 -150)" fill="#e6e6e6"/><path d="M366,150.41v4.936c0,.338.568.531.963.327l4.785-2.468a.343.343,0,0,0,0-.653l-4.785-2.468C366.568,149.879,366,150.072,366,150.41Zm0,0" transform="translate(-366 -150)" fill="#e6e6e6"/></g><path d="M80.2,67.375a.863.863,0,0,0-.864-.864H67.364a.863.863,0,0,0-.864.864v9.441a.864.864,0,0,0,.864.864H79.338a.864.864,0,0,0,.864-.864Zm-1.727,8.578H68.227V68.239H78.474Zm0,0" transform="translate(-58.844 -58.854)"/><path d="M210.2,67.375a.863.863,0,0,0-.864-.864H197.364a.863.863,0,0,0-.864.864v9.441a.864.864,0,0,0,.864.864h11.974a.864.864,0,0,0,.864-.864Zm-1.727,8.578H198.227V68.239h10.247Zm0,0" transform="translate(-173.876 -58.854)"/><path d="M79.338,194.5H67.364a.864.864,0,0,0-.864.864V204.8a.864.864,0,0,0,.864.864H79.338a.864.864,0,0,0,.864-.864v-9.441A.864.864,0,0,0,79.338,194.5Zm-.864,9.441H68.227v-7.714H78.474Zm0,0" transform="translate(-58.844 -172.106)"/><path d="M209.338,194.5H197.364a.864.864,0,0,0-.864.864V204.8a.864.864,0,0,0,.864.864h11.974a.864.864,0,0,0,.864-.864v-9.441A.864.864,0,0,0,209.338,194.5Zm-.864,9.441H198.227v-7.714h10.247Zm0,0" transform="translate(-173.876 -172.106)"/><path d="M342.643,91.553V67.376a.863.863,0,0,0-.864-.864H329.156a.863.863,0,0,0-.863.864V91.553a.864.864,0,0,0,.863.864H341.78A.864.864,0,0,0,342.643,91.553Zm-1.727-.864h-10.9V68.239h10.9Zm0,0" transform="translate(-290.495 -58.854)"/><path d="M359.112,149.744a1.642,1.642,0,0,0,.852.233h.139a1.58,1.58,0,0,0,.756-.189l1.9-1.042,2.745-1.416a1.2,1.2,0,0,0,0-2.188l-2.745-1.416-1.9-1.042a1.584,1.584,0,0,0-.769-.19H360a1.649,1.649,0,0,0-.889.233,1.227,1.227,0,0,0-.612,1.042V148.7A1.225,1.225,0,0,0,359.112,149.744Zm2.839-4.495,1.8.985-1.8.985-1.551.8v-3.571Zm0,0" transform="translate(-317.224 -126.086)"/><path d="M78.11,65.116h2.606a1.326,1.326,0,0,0,1.324-1.324V31.324A1.326,1.326,0,0,0,80.717,30H31.324A1.326,1.326,0,0,0,30,31.324V63.792a1.326,1.326,0,0,0,1.324,1.324H74.469a.864.864,0,1,0,0-1.727H31.727V31.727H80.314V63.389h-2.2a.864.864,0,0,0,0,1.727Zm0,0" transform="translate(-26.546 -26.546)"/><path d="M50.947,42.024h5.526a2.478,2.478,0,0,0,2.475-2.475V2.475A2.478,2.478,0,0,0,56.474,0h-54A2.478,2.478,0,0,0,0,2.475V6.908a.864.864,0,0,0,1.727,0V2.475a.749.749,0,0,1,.748-.748h54a.749.749,0,0,1,.748.748V39.549a.749.749,0,0,1-.748.748h-54a.749.749,0,0,1-.748-.748V10.779a.864.864,0,0,0-1.727,0v28.77a2.478,2.478,0,0,0,2.475,2.475H8v2.015a2.578,2.578,0,0,0,.611,1.669H2.591a2.591,2.591,0,1,0,0,5.181H7.278a.864.864,0,1,0,0-1.727H2.591a.864.864,0,1,1,0-1.727H56.359a.864.864,0,0,1,0,1.727H11.037a.864.864,0,1,0,0,1.727H56.359a2.591,2.591,0,0,0,0-5.181H50.336a2.578,2.578,0,0,0,.611-1.669Zm-1.727,0v2.015a.864.864,0,1,1-1.727,0V42.024Zm-37.764,0v2.015a.864.864,0,1,1-1.727,0V42.024Zm1.116,3.684a2.578,2.578,0,0,0,.611-1.669V42.024H45.766v2.015a2.578,2.578,0,0,0,.611,1.669Zm0,0"/></svg>