<svg xmlns="http://www.w3.org/2000/svg" width="72" height="72" viewBox="0 0 72 72"><g transform="translate(-298 -5107)"><path d="M36,0A36,36,0,1,1,0,36,36,36,0,0,1,36,0Z" transform="translate(298 5107)" fill="#ecfef4"/><g transform="translate(310.5 5121.201)"><path d="M43.76,41.541a13.293,13.293,0,1,1,2.074-12.733A13.293,13.293,0,0,1,43.76,41.541Z" transform="translate(-4.354 -4.35)" fill="#9e9e9e" fill-rule="evenodd"/><path d="M49.2,28.806a13.3,13.3,0,0,0-13.7-8.748,13.3,13.3,0,0,1,0,26.49A13.3,13.3,0,0,0,49.2,28.806Z" transform="translate(-7.717 -4.348)" fill="#707070" fill-rule="evenodd"/><circle cx="10.174" cy="10.174" r="10.174" transform="translate(18.783 18.783)" fill="#02a9f4"/><path d="M43.868,26.982a10.148,10.148,0,0,0-8.368-2.9,10.166,10.166,0,0,1,0,20.2,10.168,10.168,0,0,0,8.368-17.3Z" transform="translate(-7.717 -5.219)" fill="#0377bc" fill-rule="evenodd"/><path d="M56.418,56.417a2.348,2.348,0,0,1-3.318,0l-2.583-2.575a.783.783,0,0,1,0-1.1v-.008l2.215-2.207v-.008a.789.789,0,0,1,1.111,0L56.418,53.1a2.348,2.348,0,0,1,0,3.318Z" transform="translate(-10.931 -10.931)" fill="#f44335" fill-rule="evenodd"/><path d="M56.925,53.1,54.35,50.516a.789.789,0,0,0-1.111,0v.008l-.617.614,1.957,1.96a2.317,2.317,0,0,1-.485,3.678A2.342,2.342,0,0,0,56.926,53.1Z" transform="translate(-11.438 -10.931)" fill="#c81e1e" fill-rule="evenodd"/><path d="M52.13,49.915v.008L49.915,52.13,47.52,49.735a13.082,13.082,0,0,0,2.215-2.215Z" transform="translate(-10.329 -10.329)" fill="#7f8e94" fill-rule="evenodd"/><path d="M41.7,4.131V24.675a13.3,13.3,0,0,0-25.827,4.5H4.131A3.131,3.131,0,0,1,1,26.044V4.131A3.131,3.131,0,0,1,4.131,1H38.566A3.131,3.131,0,0,1,41.7,4.131Z" transform="translate(-0.217 -0.217)" fill="#f5f5f5" fill-rule="evenodd"/><path d="M20.9,23.9A13.263,13.263,0,0,0,17,33.306h2.348A13.3,13.3,0,0,1,31.479,20.057,13.271,13.271,0,0,0,20.9,23.9Z" transform="translate(-3.695 -4.348)" fill="#cfd8dc" fill-rule="evenodd"/><path d="M48.348,1H46a3.131,3.131,0,0,1,3.131,3.131V20.625a13.226,13.226,0,0,1,2.348,4.049V4.131A3.131,3.131,0,0,0,48.348,1Z" transform="translate(-9.999 -0.217)" fill="#cfd8dc" fill-rule="evenodd"/><path d="M20,18.366V8.589a.648.648,0,0,1,.961-.512l9.663,4.888a.565.565,0,0,1,0,1.03l-9.663,4.882A.648.648,0,0,1,20,18.366Z" transform="translate(-4.347 -1.738)" fill="#f44335" fill-rule="evenodd"/><path d="M30.42,30.629a.783.783,0,0,1-.553-1.336A7.768,7.768,0,0,1,35.4,27a.783.783,0,0,1,0,1.565A6.214,6.214,0,0,0,30.973,30.4a.783.783,0,0,1-.553.229Z" transform="translate(-6.442 -5.869)" fill="#f5f5f5" fill-rule="evenodd"/><path d="M41.7,26.209a10.957,10.957,0,1,0,3.209,7.748A10.957,10.957,0,0,0,41.7,26.209ZM40.6,40.6a9.392,9.392,0,1,1,2.751-6.641A9.392,9.392,0,0,1,40.6,40.6Z" transform="translate(-4.999 -4.999)"/><path d="M43.461,39.035a1.561,1.561,0,0,0-1.51-.4l-1.52-1.525a13.994,13.994,0,0,0,1.831-12.758V3.913A3.918,3.918,0,0,0,38.349,0H3.913A3.918,3.918,0,0,0,0,3.913V25.827A3.918,3.918,0,0,0,3.913,29.74h11a14.058,14.058,0,0,0,22.2,10.692l1.524,1.528a1.561,1.561,0,0,0,.4,1.5l2.583,2.583a3.131,3.131,0,1,0,4.427-4.427ZM1.565,25.827V3.913A2.348,2.348,0,0,1,3.913,1.565H38.349A2.348,2.348,0,0,1,40.7,3.913V21.165A14.244,14.244,0,0,0,38.919,19a14.1,14.1,0,0,0-22.944,4.483h-5.8V22.7a.783.783,0,0,0-1.565,0v.783H5.478a.783.783,0,0,0,0,1.565H8.609v.783a.783.783,0,0,0,1.565,0v-.783h5.252a14.033,14.033,0,0,0-.518,3.131h-11a2.348,2.348,0,0,1-2.348-2.348ZM20.1,37.811a12.522,12.522,0,1,1,8.854,3.668A12.522,12.522,0,0,1,20.1,37.811Zm18.815,1.107c.185-.186.351-.386.526-.581l1.248,1.252L39.584,40.7l-1.248-1.252C38.531,39.272,38.732,39.1,38.919,38.919Zm6.015,6.015a1.6,1.6,0,0,1-2.213,0l-2.583-2.583,2.213-2.213,2.583,2.583A1.565,1.565,0,0,1,44.934,44.934Z" transform="translate(0 0)"/><path d="M19.657,19.3a1.492,1.492,0,0,0,1.44.059l9.664-4.889a1.347,1.347,0,0,0,0-2.426L21.1,7.156a1.487,1.487,0,0,0-1.44.059A1.352,1.352,0,0,0,19,8.372v9.777A1.352,1.352,0,0,0,19.657,19.3Zm.909-10.661,9.126,4.618-9.126,4.618Z" transform="translate(-4.13 -1.521)"/></g></g></svg>