<svg xmlns="http://www.w3.org/2000/svg" width="86" height="86" viewBox="0 0 86 86"><g transform="translate(-495.051 -3650)"><circle cx="43" cy="43" r="43" transform="translate(495.051 3650)" fill="#dafeea"/><g transform="translate(517.02 3668.999)"><path d="M34.176,20.359a.678.678,0,0,1-.487-.2l-2.837-2.927a2.7,2.7,0,0,1-1.967.8,2.646,2.646,0,0,1-1.942-.925,2.861,2.861,0,0,1,.115-3.785L24.192,10.37a.678.678,0,0,1,0-.944L32.74.618a2.035,2.035,0,0,1,2.875,0l8.547,8.8a.678.678,0,0,1,0,.944l-3.324,3.426a.679.679,0,0,1-.975-.005l-.475-.5a1.289,1.289,0,0,0-.969-.4,1.309,1.309,0,0,0-.956.457.974.974,0,0,0-.172.264l-1.244-.543a2.312,2.312,0,0,1,.4-.623,2.656,2.656,0,0,1,3.9-.1L42.723,9.9l-8.085-8.33a.646.646,0,0,0-.923,0L25.624,9.9l2.865,2.954a.678.678,0,0,1,0,.95l-.393.4a1.523,1.523,0,0,0-.13,2.014,1.3,1.3,0,0,0,.957.461,1.28,1.28,0,0,0,.97-.4l.475-.49a.683.683,0,0,1,.973,0l2.836,2.922L36.03,16.8l.973.946-2.34,2.408a.678.678,0,0,1-.486.206Z" transform="translate(-8.398 -0.024)" fill="#72b08d"/><path d="M8.462,39.638c-.049,0-.1,0-.147,0a2.768,2.768,0,0,1-2.566-2.709H1.678A.678.678,0,0,1,1,36.246V24.035A2.035,2.035,0,0,1,3.035,22H15.246a.678.678,0,0,1,.678.678v4.749a.678.678,0,0,1-.678.678h-.678a1.357,1.357,0,0,0-1.357,1.431,1.437,1.437,0,0,0,1.472,1.283h.563a.678.678,0,0,1,.678.678v4.749a.678.678,0,0,1-.678.678h-4.07a2.727,2.727,0,0,1-.846,1.967A2.686,2.686,0,0,1,8.462,39.638Zm-6.105-4.07h4.07a.678.678,0,0,1,.678.678v.563a1.437,1.437,0,0,0,1.283,1.472,1.357,1.357,0,0,0,1.431-1.357v-.678a.678.678,0,0,1,.678-.678h4.07V32.176a2.768,2.768,0,0,1-2.709-2.567,2.69,2.69,0,0,1,.742-2.014,2.727,2.727,0,0,1,1.967-.846V23.357H3.035a.678.678,0,0,0-.678.678Z" transform="translate(-1 -7.092)" fill="#72b08d"/><path d="M15.246,56.924H3.035A2.035,2.035,0,0,1,1,54.889V42.678A.678.678,0,0,1,1.678,42H6.427a.678.678,0,0,1,.678.678v.678a1.357,1.357,0,0,0,1.431,1.357,1.437,1.437,0,0,0,1.283-1.472v-.563A.678.678,0,0,1,10.5,42h4.749a.678.678,0,0,1,.678.678v4.07a2.727,2.727,0,0,1,1.967.846,2.69,2.69,0,0,1,.741,2.012,2.768,2.768,0,0,1-2.708,2.569v4.07A.678.678,0,0,1,15.246,56.924ZM2.357,43.357V54.889a.678.678,0,0,0,.678.678H14.567V51.5a.678.678,0,0,1,.678-.678h.563a1.437,1.437,0,0,0,1.472-1.283,1.357,1.357,0,0,0-1.357-1.431h-.678a.678.678,0,0,1-.678-.678v-4.07H11.176a2.768,2.768,0,0,1-2.567,2.709,2.688,2.688,0,0,1-2.014-.742,2.727,2.727,0,0,1-.846-1.967Z" transform="translate(-1 -13.524)" fill="#72b08d"/><path d="M33.889,55.638H21.678A.678.678,0,0,1,21,54.96V50.211a.678.678,0,0,1,.678-.678h.678A1.357,1.357,0,0,0,23.713,48.1a1.437,1.437,0,0,0-1.472-1.283h-.563A.678.678,0,0,1,21,46.141V41.392a.678.678,0,0,1,.678-.678h4.07a2.727,2.727,0,0,1,.846-1.967,2.688,2.688,0,0,1,2.012-.741,2.768,2.768,0,0,1,2.569,2.708h4.07a.678.678,0,0,1,.678.678V53.6A2.035,2.035,0,0,1,33.889,55.638ZM22.357,54.281H33.889a.678.678,0,0,0,.678-.678V42.071H30.5a.678.678,0,0,1-.678-.678v-.563a1.437,1.437,0,0,0-1.283-1.472,1.357,1.357,0,0,0-1.431,1.357v.678a.678.678,0,0,1-.678.678h-4.07v3.392a2.768,2.768,0,0,1,2.709,2.567,2.69,2.69,0,0,1-.742,2.014,2.727,2.727,0,0,1-1.967.846Z" transform="translate(-7.433 -12.238)" fill="#72b08d"/><path d="M46.819,32.246c-4.681,0-6.025-5.427-6.1-8.535L38.2,21.193a.678.678,0,0,1,0-.959L40.234,18.2a.678.678,0,0,1,.959,0L47.3,24.3l-.959.959-5.626-5.626-1.076,1.076,2.234,2.234a.678.678,0,0,1,.2.48c0,.075.068,7.462,4.749,7.462Z" transform="translate(-12.9 -5.805)" fill="#72b08d"/><path d="M56.36,30.775H55V28.062L56.331,13.42l-5.01-4.384-4.749-.592L46.743,7.1l4.952.617a.678.678,0,0,1,.363.163l5.427,4.749a.678.678,0,0,1,.231.57L56.36,28.123Z" transform="translate(-15.657 -2.3)" fill="#72b08d"/><path d="M47,37h1.357v3.392H47Z" transform="translate(-15.795 -11.916)" fill="#72b08d"/><path d="M56.532,46.427H45.678A.678.678,0,0,1,45,45.749v-4.07A.678.678,0,0,1,45.678,41H56.532a.678.678,0,0,1,.678.678v4.07A.678.678,0,0,1,56.532,46.427ZM46.357,45.07h9.5V42.357h-9.5Z" transform="translate(-15.152 -13.203)" fill="#72b08d"/><path d="M46,48h1.357V58.176H46Z" transform="translate(-15.473 -15.454)" fill="#72b08d"/><path d="M60,48h1.357V58.176H60Z" transform="translate(-19.976 -15.454)" fill="#72b08d"/><path d="M47,19h1.357v4.07H47Z" transform="translate(-15.795 -6.127)" fill="#72b08d"/><path d="M12,11h5.427v1.357H12Z" transform="translate(-4.538 -3.554)" fill="#72b08d"/><path d="M0,0H4.8V1.357H0Z" transform="translate(9.015 13.072) rotate(-45)" fill="#72b08d"/><path d="M0,0H1.357V4.8H0Z" transform="translate(9.016 3.178) rotate(-45)" fill="#72b08d"/><path d="M5,58H6.357v1.357H5Z" transform="translate(-2.287 -18.67)" fill="#72b08d"/><path d="M9,58h6.784v1.357H9Z" transform="translate(-3.573 -18.67)" fill="#72b08d"/></g></g></svg>