<svg xmlns="http://www.w3.org/2000/svg" width="190" height="166" viewBox="0 0 190 166"><g transform="translate(-285 -4647)"><rect width="190" height="166" transform="translate(285 4647)" fill="#f5fef9"/><g transform="translate(325.5 4642.669)"><g transform="translate(1.749 43.201)"><g transform="translate(62.169 8.378)"><path d="M337.491,159.064H300.24V92.96a4.9,4.9,0,0,1,4.9-4.9h33.845a4.9,4.9,0,0,1,4.9,4.9v59.718A6.387,6.387,0,0,1,337.491,159.064Z" transform="translate(-300.24 -88.063)" fill="#edfbff"/><path d="M328.869,88.063H305.142a4.9,4.9,0,0,0-4.9,4.9v66.1h28.628v-71Z" transform="translate(-300.241 -88.063)" fill="#d6f6fd"/></g><g transform="translate(62.169 8.523)"><path d="M343.878,101.232V93.694a4.949,4.949,0,0,0-4.949-4.949H305.189a4.949,4.949,0,0,0-4.949,4.949v7.538Z" transform="translate(-300.24 -88.745)" fill="#05e39c"/><path d="M328.869,88.745H305.19a4.949,4.949,0,0,0-4.949,4.949v7.538h28.628V88.745Z" transform="translate(-300.241 -88.745)" fill="#0ed290"/></g><g transform="translate(83.286 28.732)"><path d="M399.432,195.8h10.95a3.193,3.193,0,0,0,3.193-3.193v-5.741a3.193,3.193,0,0,0-3.193-3.193h-10.95Z" transform="translate(-399.432 -183.669)" fill="#62dbfb"/><path d="M399.431,183.669h7.511V195.8h-7.511Z" transform="translate(-399.431 -183.669)" fill="#62dbfb"/></g><g transform="translate(83.286 49.169)"><path d="M399.432,303.3h9.71a3.193,3.193,0,0,0,3.193-3.193V282.86a3.193,3.193,0,0,0-3.193-3.193h-9.71Z" transform="translate(-399.432 -279.667)" fill="#fe9738"/><path d="M399.431,279.667h7.511V303.3h-7.511Z" transform="translate(-399.431 -279.667)" fill="#fe860a"/></g><g transform="translate(0 8.523)"><path d="M14.6,159.747H51.855v-66.1a4.9,4.9,0,0,0-4.9-4.9H13.113a4.9,4.9,0,0,0-4.9,4.9V153.36a6.387,6.387,0,0,0,6.387,6.387Z" transform="translate(-8.217 -88.746)" fill="#edfbff"/><path d="M104.237,88.745H80.993v71h28.144v-66.1A4.9,4.9,0,0,0,104.237,88.745Z" transform="translate(-65.5 -88.745)" fill="#d6f6fd"/></g><g transform="translate(0 8.523)"><path d="M8.217,101.232V93.694a4.949,4.949,0,0,1,4.949-4.949H46.906a4.949,4.949,0,0,1,4.949,4.949v7.538Z" transform="translate(-8.217 -88.745)" fill="#fe9738"/><path d="M104.188,88.745h-23.2v12.487h28.144V93.694A4.949,4.949,0,0,0,104.188,88.745Z" transform="translate(-65.5 -88.745)" fill="#fe860a"/></g><path d="M168.491,136.757h-47.91a6.387,6.387,0,0,1-6.387-6.387V53.606a4.9,4.9,0,0,1,4.9-4.9h50.891a4.9,4.9,0,0,1,4.9,4.9v76.764A6.387,6.387,0,0,1,168.491,136.757Z" transform="translate(-91.632 -48.71)" fill="#edfbff"/><path d="M174.877,61.2V53.659a4.949,4.949,0,0,0-4.949-4.949H119.142a4.949,4.949,0,0,0-4.949,4.949V61.2Z" transform="translate(-91.632 -48.71)" fill="#62dbfb"/><path d="M114.194,147.4h60.725v24.257H114.194Z" transform="translate(-91.632 -126.39)" fill="#fedf30"/><path d="M194.853,191.64H162.944a4.715,4.715,0,0,1-4.715-4.715v-.008a4.715,4.715,0,0,1,4.715-4.715h31.909a4.715,4.715,0,0,1,4.715,4.715v.008A4.716,4.716,0,0,1,194.853,191.64Z" transform="translate(-126.293 -153.782)" fill="#fff"/><path d="M169.361,304.772H156.924a2.1,2.1,0,0,1-2.1-2.1v-8.175a2.1,2.1,0,0,1,2.1-2.1h12.436a2.1,2.1,0,0,1,2.1,2.1v8.175A2.1,2.1,0,0,1,169.361,304.772Z" transform="translate(-123.611 -240.514)" fill="#fe9738"/><path d="M282.547,304.772h12.436a2.1,2.1,0,0,0,2.1-2.1v-8.175a2.1,2.1,0,0,0-2.1-2.1H282.547a2.1,2.1,0,0,0-2.1,2.1v8.175A2.1,2.1,0,0,0,282.547,304.772Z" transform="translate(-222.49 -240.514)" fill="#bd80e1"/><g transform="translate(8.418 28.877)"><path d="M61.9,196.48H50.95a3.193,3.193,0,0,1-3.193-3.193v-5.741a3.193,3.193,0,0,1,3.193-3.193H61.9V196.48Z" transform="translate(-47.757 -184.352)" fill="#62dbfb"/><path d="M80.993,184.351h7.068v12.128H80.993Z" transform="translate(-73.917 -184.351)" fill="#62dbfb"/></g><g transform="translate(9.658 49.169)"><path d="M66.487,303.3h-9.71a3.193,3.193,0,0,1-3.193-3.193V282.86a3.193,3.193,0,0,1,3.193-3.193h9.71V303.3Z" transform="translate(-53.584 -279.667)" fill="#05e39c"/><path d="M80.993,279.667h7.068V303.3H80.993Z" transform="translate(-75.158 -279.667)" fill="#0ed290"/></g></g><g transform="translate(0 41.711)"><path d="M102.454,50.234H86.439V48.257a6.553,6.553,0,0,0-6.546-6.546H46.271a1.6,1.6,0,1,0,0,3.193H79.893a3.356,3.356,0,0,1,3.353,3.352V54.2H25.755V48.257A3.356,3.356,0,0,1,29.107,44.9H39.218a1.6,1.6,0,0,0,0-3.193H29.107a6.553,6.553,0,0,0-6.546,6.546v1.977H6.546A6.553,6.553,0,0,0,0,56.78v59.659a8,8,0,0,0,7.989,7.989H22.561v.534a8,8,0,0,0,7.989,7.989H65.24a1.6,1.6,0,1,0,0-3.193H30.55a4.8,4.8,0,0,1-4.8-4.8V90.171H83.246v34.791a4.8,4.8,0,0,1-4.8,4.8H71.179a1.6,1.6,0,1,0,0,3.193H78.45a8,8,0,0,0,7.989-7.989v-.534h14.572A8,8,0,0,0,109,116.439V56.78a6.553,6.553,0,0,0-6.546-6.546ZM22.561,114.512H14.448a1.6,1.6,0,0,1-1.6-1.6V95.67a1.6,1.6,0,0,1,1.6-1.6h8.113Zm0-31.8H13.208a1.6,1.6,0,0,1-1.6-1.6V75.378a1.6,1.6,0,0,1,1.6-1.6h9.354v8.935Zm0-12.128H13.208a4.8,4.8,0,0,0-4.79,4.79v5.742a4.8,4.8,0,0,0,4.79,4.79h9.354v4.97H14.448a4.8,4.8,0,0,0-4.79,4.79v17.246a4.8,4.8,0,0,0,4.79,4.79h8.113v3.53H7.989a4.8,4.8,0,0,1-4.8-4.8V65.914H22.561Zm0-7.867H3.193V56.78a3.356,3.356,0,0,1,3.353-3.352H22.562v9.294ZM83.246,86.978H25.755V65.914H83.246Zm0-24.257H25.755v-5.33H83.246Zm22.561,53.718a4.8,4.8,0,0,1-4.8,4.8H86.439v-3.53h8.154a4.8,4.8,0,0,0,4.79-4.79V95.669a4.8,4.8,0,0,0-4.79-4.79H86.439V88.927a1.6,1.6,0,0,0,.04-.353V85.909h9.354a4.8,4.8,0,0,0,4.79-4.79V75.377a4.8,4.8,0,0,0-4.79-4.79H86.48V65.914h19.327Zm-19.328-1.927V94.073h8.113a1.6,1.6,0,0,1,1.6,1.6v17.246a1.6,1.6,0,0,1-1.6,1.6Zm0-31.8V73.781h9.354a1.6,1.6,0,0,1,1.6,1.6v5.742a1.6,1.6,0,0,1-1.6,1.6Zm19.328-19.995H86.439V53.427h16.016a3.356,3.356,0,0,1,3.352,3.352Z" transform="translate(0 -41.711)"/><path d="M166.439,289.091a3.7,3.7,0,0,0-3.7-3.7H150.3a3.7,3.7,0,0,0-3.7,3.7v8.175a3.7,3.7,0,0,0,3.7,3.7H162.74a3.7,3.7,0,0,0,3.7-3.7Zm-3.193,8.175a.506.506,0,0,1-.506.505H150.3a.506.506,0,0,1-.506-.505v-8.175a.506.506,0,0,1,.506-.506H162.74a.506.506,0,0,1,.506.506Z" transform="translate(-115.394 -233.515)"/><path d="M164.843,376.173H148.2a1.6,1.6,0,0,0,0,3.193h16.641a1.6,1.6,0,0,0,0-3.193Z" transform="translate(-115.394 -304.969)"/><path d="M164.843,406.218H148.2a1.6,1.6,0,0,0,0,3.193h16.641a1.6,1.6,0,0,0,0-3.193Z" transform="translate(-115.394 -328.618)"/><path d="M275.927,300.966h12.436a3.7,3.7,0,0,0,3.7-3.7v-8.175a3.7,3.7,0,0,0-3.7-3.7H275.927a3.7,3.7,0,0,0-3.7,3.7v8.175A3.7,3.7,0,0,0,275.927,300.966Zm-.506-11.874a.506.506,0,0,1,.506-.506h12.436a.506.506,0,0,1,.506.506v8.175a.506.506,0,0,1-.506.505H275.927a.506.506,0,0,1-.506-.505Z" transform="translate(-214.273 -233.515)"/><path d="M273.825,379.366h16.641a1.6,1.6,0,0,0,0-3.193H273.825a1.6,1.6,0,0,0,0,3.193Z" transform="translate(-214.273 -304.969)"/><path d="M273.825,409.411h16.641a1.6,1.6,0,0,0,0-3.193H273.825a1.6,1.6,0,0,0,0,3.193Z" transform="translate(-214.273 -328.618)"/><path d="M286.379,74.231a1.6,1.6,0,0,0,0-3.193h-1.5a1.6,1.6,0,0,0,0,3.193Z" transform="translate(-222.978 -64.795)"/><path d="M317.287,74.231a1.6,1.6,0,0,0,0-3.193h-1.5a1.6,1.6,0,0,0,0,3.193Z" transform="translate(-247.306 -64.795)"/><path d="M348.194,74.231a1.6,1.6,0,1,0,0-3.193h-1.5a1.6,1.6,0,0,0,0,3.193Z" transform="translate(-271.633 -64.795)"/><path d="M156.324,187.834h31.909a6.316,6.316,0,0,0,0-12.632H156.324a6.316,6.316,0,0,0,0,12.632Zm0-9.439h31.909a3.123,3.123,0,0,1,0,6.246H156.324a3.123,3.123,0,0,1,0-6.246Z" transform="translate(-118.076 -146.783)"/></g></g></g></svg>