<svg xmlns="http://www.w3.org/2000/svg" xmlns:xlink="http://www.w3.org/1999/xlink" width="190" height="97" viewBox="0 0 190 97"><defs><clipPath id="a"><rect width="190" height="51" transform="translate(180.051 2042.299)" fill="none" stroke="#54d6ff" stroke-width="1"/></clipPath></defs><g transform="translate(-285 -7212)"><g transform="translate(104.949 5169.701)" clip-path="url(#a)"><path d="M821.609,164.694l-20.466-25.238c-3.725-4.592-8.591-7.121-13.7-7.121s-9.974,2.529-13.7,7.121a38.553,38.553,0,0,1-12.4,10.26,30.34,30.34,0,0,1-28.022,0,38.509,38.509,0,0,1-12.392-10.249c-3.728-4.6-8.6-7.129-13.709-7.129s-9.973,2.528-13.7,7.119a38.546,38.546,0,0,1-12.4,10.257,30.346,30.346,0,0,1-28.023,0,38.5,38.5,0,0,1-12.391-10.249c-3.725-4.6-8.591-7.129-13.7-7.129s-9.974,2.528-13.7,7.119a38.528,38.528,0,0,1-12.4,10.254,30.342,30.342,0,0,1-28.021,0,38.508,38.508,0,0,1-12.393-10.252c-3.724-4.594-8.59-7.124-13.7-7.124s-9.977,2.53-13.7,7.124a38.516,38.516,0,0,1-12.4,10.251,30.346,30.346,0,0,1-28.02,0,38.5,38.5,0,0,1-12.393-10.249l-20.3-25.04,12.546-16.653,20.462,25.233c3.721,4.593,8.585,7.122,13.7,7.122s9.977-2.529,13.7-7.122a38.518,38.518,0,0,1,12.4-10.254,30.337,30.337,0,0,1,28.021,0,38.493,38.493,0,0,1,12.392,10.255c3.725,4.593,8.591,7.122,13.7,7.122s9.976-2.529,13.7-7.122a38.518,38.518,0,0,1,12.4-10.255,30.339,30.339,0,0,1,28.02,0A38.506,38.506,0,0,1,653.4,123.006c3.726,4.6,8.594,7.129,13.707,7.129s9.974-2.528,13.7-7.119a38.532,38.532,0,0,1,12.4-10.258,30.342,30.342,0,0,1,28.021,0A38.5,38.5,0,0,1,733.623,123c3.729,4.6,8.6,7.133,13.711,7.133s9.971-2.528,13.694-7.119a38.547,38.547,0,0,1,12.4-10.258,30.342,30.342,0,0,1,28.021,0A38.488,38.488,0,0,1,813.842,123l20.313,25.045Zm-34.167-33.359c5.417,0,10.559,2.66,14.478,7.491l19.661,24.245,11.306-15-19.821-24.438c-6.956-8.579-16.054-13.3-25.619-13.3s-18.677,4.73-25.641,13.318c-3.917,4.829-9.056,7.489-14.471,7.489s-10.566-2.665-14.488-7.5c-6.957-8.579-16.057-13.3-25.622-13.3s-18.675,4.73-25.638,13.318c-3.917,4.83-9.058,7.49-14.475,7.49s-10.564-2.663-14.484-7.5c-6.958-8.582-16.059-13.309-25.625-13.309s-18.671,4.728-25.631,13.314c-3.917,4.832-9.058,7.493-14.476,7.493s-10.561-2.661-14.479-7.493c-6.957-8.585-16.057-13.313-25.625-13.313s-18.671,4.728-25.631,13.313c-3.919,4.832-9.061,7.493-14.479,7.493s-10.558-2.661-14.473-7.493L472.551,99.4l-11.306,15.007,19.81,24.433c6.959,8.581,16.059,13.306,25.624,13.305s18.673-4.728,25.633-13.31c3.917-4.833,9.059-7.494,14.477-7.494s10.56,2.662,14.477,7.494c6.959,8.583,16.059,13.309,25.626,13.309s18.673-4.729,25.635-13.314c3.917-4.83,9.057-7.49,14.474-7.49s10.563,2.663,14.481,7.5c6.957,8.581,16.057,13.307,25.623,13.306s18.676-4.73,25.641-13.316c3.917-4.83,9.057-7.489,14.473-7.489s10.564,2.663,14.486,7.5c6.959,8.581,16.058,13.306,25.623,13.306s18.676-4.731,25.641-13.32C776.885,134,782.025,131.336,787.442,131.336Z" transform="translate(-350.067 1936.526)" fill="#54d6ff"/><path d="M720.426,146.392l-14.842-18.3a11.906,11.906,0,0,0-19.5,0c-5.18,6.387-11.971,9.9-19.122,9.9s-13.934-3.514-19.109-9.894a11.908,11.908,0,0,0-19.506-.007c-5.179,6.385-11.97,9.9-19.122,9.9s-13.935-3.514-19.109-9.895a11.906,11.906,0,0,0-19.5-.007c-5.177,6.384-11.966,9.9-19.117,9.9s-13.936-3.514-19.111-9.9a11.906,11.906,0,0,0-19.5,0c-5.176,6.382-11.964,9.9-19.116,9.9s-13.935-3.513-19.11-9.894l-14.68-18.106,9.2-12.216,14.84,18.3a11.9,11.9,0,0,0,19.5,0c5.176-6.384,11.964-9.9,19.115-9.9s13.938,3.516,19.111,9.9a11.908,11.908,0,0,0,19.5,0c5.176-6.384,11.964-9.9,19.115-9.9s13.936,3.515,19.11,9.9a11.908,11.908,0,0,0,19.506.007c5.177-6.386,11.968-9.9,19.12-9.9s13.934,3.514,19.108,9.893a11.907,11.907,0,0,0,19.506.01c5.179-6.386,11.97-9.9,19.122-9.9s13.933,3.514,19.106,9.893l14.689,18.11Zm-24.594-24.376a13.594,13.594,0,0,1,10.529,5.443l14.037,17.31L728.36,134.2l-14.2-17.5c-4.979-6.141-11.488-9.523-18.329-9.523s-13.36,3.386-18.345,9.533a12.9,12.9,0,0,1-21.059-.01c-4.98-6.141-11.49-9.523-18.331-9.523s-13.359,3.386-18.343,9.533A12.9,12.9,0,0,1,598.7,116.7c-4.981-6.143-11.492-9.526-18.334-9.526s-13.356,3.384-18.338,9.53a12.9,12.9,0,0,1-21.057,0c-4.98-6.145-11.491-9.53-18.334-9.53s-13.356,3.384-18.338,9.53a12.9,12.9,0,0,1-21.054,0L469.208,99.4l-7.963,10.57,14.188,17.5c4.981,6.142,11.492,9.524,18.333,9.524s13.357-3.384,18.339-9.527a12.9,12.9,0,0,1,21.057,0c4.981,6.144,11.492,9.527,18.334,9.526s13.357-3.385,18.341-9.53a12.9,12.9,0,0,1,21.057.007c4.98,6.142,11.491,9.525,18.332,9.525s13.36-3.386,18.345-9.532a12.9,12.9,0,0,1,21.059.007c4.981,6.142,11.491,9.524,18.332,9.524s13.359-3.386,18.345-9.535A13.583,13.583,0,0,1,695.831,122.017Z" transform="translate(-297.804 2060.948)" fill="#54d6ff"/></g><g transform="translate(104.949 5215.701)" clip-path="url(#a)"><path d="M821.609,164.694l-20.466-25.238c-3.725-4.592-8.591-7.121-13.7-7.121s-9.974,2.529-13.7,7.121a38.553,38.553,0,0,1-12.4,10.26,30.34,30.34,0,0,1-28.022,0,38.509,38.509,0,0,1-12.392-10.249c-3.728-4.6-8.6-7.129-13.709-7.129s-9.973,2.528-13.7,7.119a38.546,38.546,0,0,1-12.4,10.257,30.346,30.346,0,0,1-28.023,0,38.5,38.5,0,0,1-12.391-10.249c-3.725-4.6-8.591-7.129-13.7-7.129s-9.974,2.528-13.7,7.119a38.528,38.528,0,0,1-12.4,10.254,30.342,30.342,0,0,1-28.021,0,38.508,38.508,0,0,1-12.393-10.252c-3.724-4.594-8.59-7.124-13.7-7.124s-9.977,2.53-13.7,7.124a38.516,38.516,0,0,1-12.4,10.251,30.346,30.346,0,0,1-28.02,0,38.5,38.5,0,0,1-12.393-10.249l-20.3-25.04,12.546-16.653,20.462,25.233c3.721,4.593,8.585,7.122,13.7,7.122s9.977-2.529,13.7-7.122a38.518,38.518,0,0,1,12.4-10.254,30.337,30.337,0,0,1,28.021,0,38.493,38.493,0,0,1,12.392,10.255c3.725,4.593,8.591,7.122,13.7,7.122s9.976-2.529,13.7-7.122a38.518,38.518,0,0,1,12.4-10.255,30.339,30.339,0,0,1,28.02,0A38.506,38.506,0,0,1,653.4,123.006c3.726,4.6,8.594,7.129,13.707,7.129s9.974-2.528,13.7-7.119a38.532,38.532,0,0,1,12.4-10.258,30.342,30.342,0,0,1,28.021,0A38.5,38.5,0,0,1,733.623,123c3.729,4.6,8.6,7.133,13.711,7.133s9.971-2.528,13.694-7.119a38.547,38.547,0,0,1,12.4-10.258,30.342,30.342,0,0,1,28.021,0A38.488,38.488,0,0,1,813.842,123l20.313,25.045Zm-34.167-33.359c5.417,0,10.559,2.66,14.478,7.491l19.661,24.245,11.306-15-19.821-24.438c-6.956-8.579-16.054-13.3-25.619-13.3s-18.677,4.73-25.641,13.318c-3.917,4.829-9.056,7.489-14.471,7.489s-10.566-2.665-14.488-7.5c-6.957-8.579-16.057-13.3-25.622-13.3s-18.675,4.73-25.638,13.318c-3.917,4.83-9.058,7.49-14.475,7.49s-10.564-2.663-14.484-7.5c-6.958-8.582-16.059-13.309-25.625-13.309s-18.671,4.728-25.631,13.314c-3.917,4.832-9.058,7.493-14.476,7.493s-10.561-2.661-14.479-7.493c-6.957-8.585-16.057-13.313-25.625-13.313s-18.671,4.728-25.631,13.313c-3.919,4.832-9.061,7.493-14.479,7.493s-10.558-2.661-14.473-7.493L472.551,99.4l-11.306,15.007,19.81,24.433c6.959,8.581,16.059,13.306,25.624,13.305s18.673-4.728,25.633-13.31c3.917-4.833,9.059-7.494,14.477-7.494s10.56,2.662,14.477,7.494c6.959,8.583,16.059,13.309,25.626,13.309s18.673-4.729,25.635-13.314c3.917-4.83,9.057-7.49,14.474-7.49s10.563,2.663,14.481,7.5c6.957,8.581,16.057,13.307,25.623,13.306s18.676-4.73,25.641-13.316c3.917-4.83,9.057-7.489,14.473-7.489s10.564,2.663,14.486,7.5c6.959,8.581,16.058,13.306,25.623,13.306s18.676-4.731,25.641-13.32C776.885,134,782.025,131.336,787.442,131.336Z" transform="translate(-350.067 1936.526)" fill="#54d6ff"/><path d="M720.426,146.392l-14.842-18.3a11.906,11.906,0,0,0-19.5,0c-5.18,6.387-11.971,9.9-19.122,9.9s-13.934-3.514-19.109-9.894a11.908,11.908,0,0,0-19.506-.007c-5.179,6.385-11.97,9.9-19.122,9.9s-13.935-3.514-19.109-9.895a11.906,11.906,0,0,0-19.5-.007c-5.177,6.384-11.966,9.9-19.117,9.9s-13.936-3.514-19.111-9.9a11.906,11.906,0,0,0-19.5,0c-5.176,6.382-11.964,9.9-19.116,9.9s-13.935-3.513-19.11-9.894l-14.68-18.106,9.2-12.216,14.84,18.3a11.9,11.9,0,0,0,19.5,0c5.176-6.384,11.964-9.9,19.115-9.9s13.938,3.516,19.111,9.9a11.908,11.908,0,0,0,19.5,0c5.176-6.384,11.964-9.9,19.115-9.9s13.936,3.515,19.11,9.9a11.908,11.908,0,0,0,19.506.007c5.177-6.386,11.968-9.9,19.12-9.9s13.934,3.514,19.108,9.893a11.907,11.907,0,0,0,19.506.01c5.179-6.386,11.97-9.9,19.122-9.9s13.933,3.514,19.106,9.893l14.689,18.11Zm-24.594-24.376a13.594,13.594,0,0,1,10.529,5.443l14.037,17.31L728.36,134.2l-14.2-17.5c-4.979-6.141-11.488-9.523-18.329-9.523s-13.36,3.386-18.345,9.533a12.9,12.9,0,0,1-21.059-.01c-4.98-6.141-11.49-9.523-18.331-9.523s-13.359,3.386-18.343,9.533A12.9,12.9,0,0,1,598.7,116.7c-4.981-6.143-11.492-9.526-18.334-9.526s-13.356,3.384-18.338,9.53a12.9,12.9,0,0,1-21.057,0c-4.98-6.145-11.491-9.53-18.334-9.53s-13.356,3.384-18.338,9.53a12.9,12.9,0,0,1-21.054,0L469.208,99.4l-7.963,10.57,14.188,17.5c4.981,6.142,11.492,9.524,18.333,9.524s13.357-3.384,18.339-9.527a12.9,12.9,0,0,1,21.057,0c4.981,6.144,11.492,9.527,18.334,9.526s13.357-3.385,18.341-9.53a12.9,12.9,0,0,1,21.057.007c4.98,6.142,11.491,9.525,18.332,9.525s13.36-3.386,18.345-9.532a12.9,12.9,0,0,1,21.059.007c4.981,6.142,11.491,9.524,18.332,9.524s13.359-3.386,18.345-9.535A13.583,13.583,0,0,1,695.831,122.017Z" transform="translate(-297.804 2060.948)" fill="#54d6ff"/></g></g></svg>