<svg xmlns="http://www.w3.org/2000/svg" width="55.039" height="54.993" viewBox="0 0 55.039 54.993"><g transform="translate(-192.961 -49)"><g transform="translate(221.653 77.692)"><circle cx="1.195" cy="1.195" r="1.195" transform="translate(0 0)" fill="#9167f1"/></g><g transform="translate(209.698 60.955)"><path d="M63.35,137.432l2.391,2.391a1.194,1.194,0,0,0,1.69,0l4.782-4.782a1.2,1.2,0,0,0-1.69-1.69l-3.937,3.937-1.546-1.546a1.2,1.2,0,0,0-1.69,1.69Z" transform="translate(-63 -133.001)" fill="#9167f1" fill-rule="evenodd"/></g><g transform="translate(209.698 72.91)"><path d="M63.35,137.432l2.391,2.391a1.194,1.194,0,0,0,1.69,0l4.782-4.782a1.2,1.2,0,0,0-1.69-1.69l-3.937,3.937-1.546-1.546a1.2,1.2,0,0,0-1.69,1.69Z" transform="translate(-63 -133.001)" fill="#9167f1" fill-rule="evenodd"/></g><g transform="translate(221.653 60.955)"><path d="M74.2,137.391H86.15a1.2,1.2,0,1,0,0-2.391H74.2a1.2,1.2,0,1,0,0,2.391Z" transform="translate(-73 -135)" fill="#9167f1" fill-rule="evenodd"/></g><g transform="translate(221.653 72.91)"><path d="M74.2,137.391h4.829a1.2,1.2,0,1,0,0-2.391H74.2a1.2,1.2,0,1,0,0,2.391Z" transform="translate(-73 -135)" fill="#9167f1" fill-rule="evenodd"/></g><g transform="translate(221.653 65.737)"><path d="M74.2,141.391h7.173a1.2,1.2,0,1,0,0-2.391H74.2a1.2,1.2,0,1,0,0,2.391Z" transform="translate(-73 -139)" fill="#9167f1" fill-rule="evenodd"/></g><g transform="translate(202.525 53.782)"><path d="M59.391,145.323V127.989a.6.6,0,0,1,.6-.6h3.035a1.2,1.2,0,0,0,0-2.391H59.989A2.988,2.988,0,0,0,57,127.989v17.335a1.2,1.2,0,0,0,2.391,0Z" transform="translate(-57 -125)" fill="#9167f1" fill-rule="evenodd"/></g><path d="M223.3,53.782v-1.2a3.586,3.586,0,1,0-7.173,0v1.2H210.2a1.2,1.2,0,1,0,0,2.391h26.852a.6.6,0,0,1,.6.6l.047,5.39a1.2,1.2,0,1,0,2.391-.022l-.047-5.38a2.99,2.99,0,0,0-2.989-2.978Zm-2.391-1.2a1.2,1.2,0,1,0-2.391,0v1.2h2.391Z" transform="translate(3.135)" fill="#9167f1" fill-rule="evenodd"/><g transform="translate(216.917 92.037)"><path d="M92.949,158.188l-.047,7.778a.6.6,0,0,1-.6.6H70.234a1.2,1.2,0,1,0,0,2.391H92.3a2.988,2.988,0,0,0,2.989-2.989c0,.007.047-7.763.047-7.763a1.2,1.2,0,0,0-2.391-.014Z" transform="translate(-69.039 -157)" fill="#9167f1" fill-rule="evenodd"/></g><path d="M197.95,87.427a5.979,5.979,0,0,0-4.989,5.9v2.989A2.988,2.988,0,0,0,195.95,99.3h15.541a2.989,2.989,0,0,0,2.989-2.989V93.323a5.98,5.98,0,0,0-4.99-5.9,8.368,8.368,0,1,0-11.54,0ZM209.7,96.91h1.793a.6.6,0,0,0,.6-.6V93.323a3.586,3.586,0,0,0-3.586-3.586h-9.564a3.586,3.586,0,0,0-3.586,3.586v2.989a.6.6,0,0,0,.6.6h1.793V93.323a1.2,1.2,0,1,1,2.391,0V96.91h7.173V93.323a1.2,1.2,0,1,1,2.391,0ZM203.72,75.391a5.977,5.977,0,1,1-5.977,5.977A5.98,5.98,0,0,1,203.72,75.391Z" transform="translate(0 4.692)" fill="#9167f1" fill-rule="evenodd"/><path d="M236.723,63.875c-1.378,1.378-23.316,23.435-23.316,23.435a1.193,1.193,0,0,0-.347.842v4.782a1.194,1.194,0,0,0,1.2,1.2h4.782a1.2,1.2,0,0,0,.848-.353s10.964-11.036,18.228-18.332l.33.33a.6.6,0,0,1,0,.845l-4.637,4.637a2.989,2.989,0,0,0,0,4.226l1.124,1.123a1.2,1.2,0,0,0,1.69-1.69L235.5,83.793a.6.6,0,0,1,0-.845l4.637-4.637a2.989,2.989,0,0,0,0-4.226l-.332-.334c1.4-1.406,2.58-2.588,3.394-3.4a2.989,2.989,0,0,0,0-4.226l-2.246-2.246A2.989,2.989,0,0,0,236.723,63.875Zm-5.729,9.136,3.092,3.092c-6.231,6.262-13.839,13.919-15.545,15.636h-3.089V88.646C217.151,86.935,224.76,79.277,230.995,73.011Zm4.778,1.4-3.092-3.09c2.42-2.43,4.5-4.515,5.732-5.751a.6.6,0,0,1,.845,0l2.246,2.246a.6.6,0,0,1,0,.845C240.268,69.893,238.191,71.978,235.773,74.407Z" transform="translate(3.929 2.737)" fill="#9167f1" fill-rule="evenodd"/></g></svg>