<svg xmlns="http://www.w3.org/2000/svg" xmlns:xlink="http://www.w3.org/1999/xlink" width="190" height="279" viewBox="0 0 190 279"><defs><clipPath id="a"><rect width="190" height="279" transform="translate(1125 6915)" fill="#fff4e7"/></clipPath><clipPath id="b"><rect width="246.631" height="488.283" fill="none"/></clipPath><clipPath id="c"><rect width="246.63" height="488.285" fill="none"/></clipPath><clipPath id="d"><rect width="50.037" height="44.579" fill="none"/></clipPath><clipPath id="e"><rect width="23.846" height="24.951" fill="none"/></clipPath><clipPath id="f"><rect width="34.292" height="18.467" fill="none"/></clipPath><clipPath id="g"><rect width="63.516" height="23.26" fill="none"/></clipPath><clipPath id="h"><rect width="29.13" height="32.296" fill="none"/></clipPath><clipPath id="i"><rect width="27.091" height="57.265" fill="none"/></clipPath></defs><g transform="translate(-1125 -6915)" clip-path="url(#a)"><rect width="190" height="279" transform="translate(1125 6915)" fill="#fff4e7"/><g transform="translate(1105 6915.607)"><g clip-path="url(#b)"><g transform="translate(0 -0.002)"><g clip-path="url(#c)"><path d="M51.727,50.693a58.721,58.721,0,0,1-7.1,6.665C31.443,68.21,7.014,83.009,1.253,71.482-4.17,60.645,9.357,45.669,16.174,39.1c2.161-2.08,3.646-3.323,3.646-3.323s1.8.273,4.565.788h.01c8.594,1.6,26.464,5.544,28.171,10.993a3.194,3.194,0,0,1-.838,3.136" transform="translate(0 144.879)" fill="#ffa86f"/><path d="M38.756,50.693a58.721,58.721,0,0,1-7.1,6.665C19.947,53.622,8.661,44.164,3.2,39.1c2.161-2.08,3.646-3.323,3.646-3.323s1.8.273,4.565.788h.01c8.428,4.2,20.783,8.539,28.171,10.993a3.194,3.194,0,0,1-.838,3.136" transform="translate(12.97 144.879)" fill="#472850"/><path d="M25.034,41.421s-15.068,1.1-22.712,4.231c0,0,10.432-8.433,18.471-7.357s4.242,3.126,4.242,3.126" transform="translate(9.403 154.691)" fill="#472850"/><path d="M39.377,50.582a58.723,58.723,0,0,0,7.1,6.665C59.661,68.1,84.09,82.9,89.852,71.371c5.423-10.836-8.1-25.813-14.921-32.382-2.161-2.08-3.646-3.323-3.646-3.323s-1.8.273-4.565.788h-.01C58.116,38.049,40.246,42,38.539,47.446a3.194,3.194,0,0,0,.838,3.136" transform="translate(155.526 144.429)" fill="#ffa86f"/><path d="M39.377,50.582a58.723,58.723,0,0,0,7.1,6.665c11.71-3.737,23-13.194,28.454-18.259-2.161-2.08-3.646-3.323-3.646-3.323s-1.8.273-4.565.788h-.01c-8.428,4.2-20.783,8.539-28.171,10.993a3.194,3.194,0,0,0,.838,3.136" transform="translate(155.526 144.429)" fill="#472850"/><path d="M42.742,41.31s15.068,1.1,22.712,4.231c0,0-10.432-8.433-18.471-7.357s-4.242,3.126-4.242,3.126" transform="translate(169.451 154.242)" fill="#472850"/><path d="M58.96,60.975S55.915,71.493,40.413,75.229l-1.959-8.357s15.739-7.342,20.506-5.9" transform="translate(155.717 246.154)" fill="#0074e8"/><path d="M8.806,74.37s4.277,8.513,20.329,3.918l4.913-17.612S17.077,59.358,8.806,74.37" transform="translate(35.659 245.585)" fill="#0074e8"/><path d="M26.069,66.937S4.962,151.086,9.426,168.249s28.413,29.893,44.243,0S87.086,58.631,87.086,58.631Z" transform="translate(35.66 237.424)" fill="#472850"/><path d="M31.491,107.219S39,99.261,58.607,92.278s6.776-34.215,6.776-34.215l-45.389,6.15s-2.9,28.883,11.5,43.006" transform="translate(79.995 235.124)" fill="#472850"/><path d="M71.23,76.173s-4.166,29.342-10.791,53.145-17.148,49.2-17.148,49.2c-1.166.2-2.378.384-3.62.535q-1.341.167-2.727.3c-12.321,1.171-26.439.136-30.983-2.818L20.534,85.479l43.981-8.074,2.9-.53Z" transform="translate(24.139 308.46)" fill="#472850"/><path d="M58.028,67.621c-.449,1.586-9.24,32.852-15.466,50.449-1.242,3.5-2.378,6.458-3.328,8.539-.434,2.085-5.469,26.131-12.013,48.954-2.782,9.71-8.872,31.832-12.4,44.682q-1.348.167-2.727.3c3.479-12.684,9.816-35.715,12.674-45.687,6.781-23.667,11.942-48.661,11.992-48.909a1.21,1.21,0,0,1,.1-.278c.8-1.737,1.757-4.176,2.8-7.074,6.256-17.345,15.8-51.272,15.911-51.666a1.274,1.274,0,1,1,2.454.687" transform="translate(48.99 267.264)" fill="#674574"/><path d="M86.97,66.937s21.107,84.149,16.643,101.312-28.413,29.893-44.243,0S25.953,58.631,25.953,58.631Z" transform="translate(105.095 237.424)" fill="#472850"/><path d="M95.759,173.647c-8.458,3.848-19.7,3.853-28.878,3.272-.924-.056-1.828-.121-2.706-.187-2.171-.162-4.186-.343-5.963-.49A492.97,492.97,0,0,1,42.17,129.323c-6.635-23.808-10.8-53.15-10.8-53.15l5.034.924,2.8.515,42.86,7.867Z" transform="translate(127.047 308.46)" fill="#472850"/><path d="M75.133,220.951c-.924-.061-1.828-.121-2.706-.187-3.04-10.791-9.488-33.134-14.022-45.182-6-15.936-10.983-44.314-11.275-46.026-.591-1.944-1.444-4.873-2.469-8.427-5.317-18.476-15.153-53.787-15.275-54.216a1.273,1.273,0,0,1,2.454-.682c.121.434,10.407,37.351,15.623,55.412.879,3.035,1.611,5.539,2.126,7.246a.874.874,0,0,1,.035.157c.05.288,5.085,29.509,11.164,45.642,4.7,12.472,11.4,35.816,14.345,46.263" transform="translate(118.796 264.428)" fill="#674574"/><path d="M171.056,108.2l-1.283-.737s.227,3.126,1.045,8.837c.919,6.382,2.58,16,5.5,28.085,5.534,22.879,30.478,78.463,30.478,78.463s-17.562,10.114-53.978,6.175c-34.887-3.772-58.685-7.993-83.412-7.625s-32.821,14.27-32.821,14.27,12.1-70.248,16.825-87.6c1.984-7.271,3.787-15.633,5.206-22.894,1.969-10.064,3.216-18.011,3.216-18.011l-3,2.353-7.261,5.706c-19.93-.369-49.626-21.2-49.626-21.2S32.04,64.528,34.408,61.332C41.235,52.106,44.744,51,51.753,47.3s49.5-26.489,49.5-26.489h30.039s29.9,12.467,36.543,16.527,16.491,10.68,23.424,17.072c8.049,7.423,36.275,32.387,36.275,32.387-10.336,21.4-47.52,26.575-47.52,26.575Z" transform="translate(7.876 84.291)" fill="#259bff"/><path d="M48.241,48.793s.227,3.126,1.045,8.837l.237,1.6L31.957,35.3,49.524,49.53Z" transform="translate(129.408 142.951)" fill="#0074e8"/><path d="M13.169,68.078c1.969-10.064,3.216-18.011,3.216-18.011l-3,2.353L31.094,34.913Z" transform="translate(53.327 141.38)" fill="#0074e8"/><path d="M48.684,34.5a42.06,42.06,0,0,1-17.527-3.868,39.906,39.906,0,0,1-10.765-7.059.694.694,0,1,1,.98-.985A39.066,39.066,0,0,0,31.784,29.4a40.425,40.425,0,0,0,27.307,2.363A.694.694,0,0,1,59.44,33.1a42.454,42.454,0,0,1-10.755,1.4" transform="translate(81.747 90.674)" fill="#0074e8"/><path d="M31.752,30.529a37.358,37.358,0,0,1-7.675-.813.694.694,0,0,1,.283-1.358c13.694,2.858,22.253-3.146,22.339-3.206a.693.693,0,1,1,.808,1.126c-.293.212-6.054,4.252-15.754,4.252" transform="translate(95.267 101.328)" fill="#0074e8"/><path d="M127.159,73.007c-13.331,0-32.65-3.838-58.346-11.558C46.767,54.829,32.583,56.465,24.565,59c-8.584,2.717-12.033,6.968-12.063,7.014a.7.7,0,0,1-1.091-.863c.151-.187,3.752-4.63,12.74-7.473,8.2-2.6,22.677-4.282,45.061,2.444C108.7,71.982,132.87,74.663,143.1,68.316a.7.7,0,0,1,.732,1.182c-3.767,2.338-9.306,3.509-16.673,3.509" transform="translate(45.602 224.351)" fill="#0074e8"/><path d="M87.835,73.657a100.016,100.016,0,0,1-16.6-1.555c-11.316-1.934-29.12-6.665-49.707-18.2a.688.688,0,0,1-.263-.939.7.7,0,0,1,.944-.268C61.245,74.576,90.713,72.2,91.006,72.167a.695.695,0,1,1,.126,1.384c-.116.01-1.252.106-3.3.106" transform="translate(85.744 213.017)" fill="#0074e8"/><path d="M99.891,78.132c-19.7,0-39.653-8.024-53.554-15.2A196.365,196.365,0,0,1,17.524,44.776a.694.694,0,1,1,.863-1.086A194.486,194.486,0,0,0,47,61.711c15.4,7.948,38.28,16.946,59.836,14.679a.693.693,0,0,1,.146,1.379,67.818,67.818,0,0,1-7.089.364" transform="translate(69.907 176.316)" fill="#0074e8"/><path d="M52.87,37.577S50.285,45.7,38.418,45.7c-13.846,0-17.107-7.382-17.107-7.382a59.891,59.891,0,0,0,2.59-8.781h.005a47.437,47.437,0,0,0,1.106-10.962l24.323-.959c.222,2.055.591,4.484,1,6.923,1.1,6.478,2.53,13.043,2.53,13.043" transform="translate(86.298 71.321)" fill="#ffa86f"/><path d="M48.259,24.535c-3.767,2.621-12.008,6.524-26.434,5a47.139,47.139,0,0,0,1.106-10.957l24.323-.964c.227,2.06.591,4.484,1,6.923" transform="translate(88.379 71.321)" fill="#472850"/><path d="M31.888,16.586S24.36,6.341,18.507,12.405,23.94,39.586,34.191,34.986Z" transform="translate(68.439 42.464)" fill="#ffa86f"/><path d="M25.112,24.447A.517.517,0,0,1,24.6,24c-.99-7.12-6.645-11.487-6.706-11.528a.522.522,0,0,1-.1-.732.516.516,0,0,1,.727-.1,20.014,20.014,0,0,1,7.1,12.215.518.518,0,0,1-.444.586l-.071.005" transform="translate(71.625 46.706)" fill="#ff804d"/><path d="M22.7,15.051a.514.514,0,0,1-.429-.227c-.757-1.121-3.015-1.232-3.822-1.182a.52.52,0,0,1-.55-.49.526.526,0,0,1,.485-.55c.146-.01,3.509-.2,4.746,1.636a.519.519,0,0,1-.136.722.526.526,0,0,1-.293.091" transform="translate(72.464 50.993)" fill="#ff804d"/><path d="M22.966,19.664a4.079,4.079,0,0,1-.444-.111,2.186,2.186,0,0,1-2.05-.157c-1.737-1.222-.227-4.161-.207-4.2a.553.553,0,0,0-.98-.515c-.081.157-1.984,3.843.55,5.62a3.088,3.088,0,0,0,1.787.545,3.46,3.46,0,0,0,1.833-.525,2.879,2.879,0,0,0,.586-.485c-.364-.05-.712-.116-1.076-.172" transform="translate(75.008 58.251)" fill="#472850"/><path d="M31.522,16.586S39.05,6.341,44.9,12.405,39.469,39.586,29.219,34.986Z" transform="translate(118.32 42.464)" fill="#ffa86f"/><path d="M30.8,24.447l-.071-.005a.518.518,0,0,1-.444-.586,20.014,20.014,0,0,1,7.1-12.215.516.516,0,0,1,.727.1.523.523,0,0,1-.1.732c-.061.04-5.721,4.423-6.706,11.528a.517.517,0,0,1-.515.449" transform="translate(122.629 46.706)" fill="#ff804d"/><path d="M31.115,15.051a.526.526,0,0,1-.293-.091.519.519,0,0,1-.136-.722c1.237-1.833,4.6-1.646,4.746-1.636a.521.521,0,0,1-.066,1.04c-.808-.05-3.07.066-3.822,1.182a.521.521,0,0,1-.429.227" transform="translate(123.893 50.993)" fill="#ff804d"/><path d="M31,19.664a4.079,4.079,0,0,0,.444-.111A2.186,2.186,0,0,0,33.5,19.4c1.737-1.222.227-4.161.207-4.2a.553.553,0,0,1,.98-.515c.081.157,1.984,3.843-.55,5.62a3.088,3.088,0,0,1-1.788.545,3.459,3.459,0,0,1-1.833-.525,2.88,2.88,0,0,1-.586-.485c.364-.05.712-.116,1.076-.172" transform="translate(121.191 58.251)" fill="#472850"/><path d="M54.954,6.458C33.9,1.323,14.836,20.354,19.588,41.5,22.941,56.427,30.727,74.121,48.794,74.55c18.834.439,25.964-18.935,28.656-34.493A29.241,29.241,0,0,0,57.873,7.291c-.949-.308-1.924-.591-2.919-.833" transform="translate(76.346 22.724)" fill="#ffa86f"/><path d="M29.391,58.129S25.862,45.683,27.084,40.7s3.777-4.07,3.777-4.07S8.971,15.739,19.282,5.519c8.978-8.9,17.37,11.9,17.37,11.9S32.279,2.328,38.5.253c7.751-2.585,11.26,15.5,11.26,15.5S49.114,2.263,55.411,2.53c8.736.369,3.817,10.457,13.29,14.4s23.783,5.933,18.622,21.8c0,0,8.352,2.929-1.4,20.031l-3.873.217s1.166-7.054-.066-11.331c0,0-5.413-3.782-5.166-9.316,0,0-19.072,11.321-36.664,1.232,0,0,1.111,6.519-4.428,7.5,0,0-2.706,6.756-2.585,11.063Z" transform="translate(66.902 0.002)" fill="#472850"/><path d="M30.642,12.183S33.656,1.9,38.519,4.528c3.474,1.878-4.615,9.705-4.615,9.705s6.807-3.681,10.165-1.086-5.554,5.655-10.69,4.782-2.737-5.746-2.737-5.746" transform="translate(121.816 16.595)" fill="#472850"/><path d="M25.8,15.827c.035,2.01-.707,3.656-1.656,3.671s-1.747-1.6-1.782-3.61.707-3.656,1.656-3.671,1.747,1.6,1.782,3.61" transform="translate(90.536 49.474)" fill="#472850"/><path d="M22.785,18.386a1.215,1.215,0,0,1-1.757-1.409c.762-2.515,3.691-7.049,9.336-6.211a1.215,1.215,0,0,1-.359,2.4c-4.964-.742-6.59,4.3-6.655,4.514a1.2,1.2,0,0,1-.566.7" transform="translate(84.94 43.188)" fill="#472850"/><path d="M26.538,15.827c-.035,2.01.707,3.656,1.656,3.671s1.747-1.6,1.782-3.61-.707-3.656-1.656-3.671-1.747,1.6-1.782,3.61" transform="translate(107.459 49.474)" fill="#472850"/><path d="M35.227,18.453a1.215,1.215,0,0,0,1.757-1.409c-.762-2.515-3.691-7.049-9.336-6.211a1.215,1.215,0,0,0,.359,2.4c4.964-.742,6.59,4.3,6.655,4.514a1.2,1.2,0,0,0,.566.7" transform="translate(107.773 43.46)" fill="#472850"/><path d="M27.853,24.411a.539.539,0,0,1-.263-.071l-2.737-1.591a.513.513,0,0,1-.187-.707.522.522,0,0,1,.712-.192l1.853,1.081-.909-8.973a.518.518,0,1,1,1.03-.106l1.015,9.988a.512.512,0,0,1-.515.571" transform="translate(99.595 54.206)" fill="#ff804d"/><path d="M31.881,20.575h-.01c-5.938-.005-8.316-3.7-8.412-3.858a.52.52,0,0,1,.879-.555c.091.146,2.2,3.368,7.534,3.373h.01c5.044,0,6.7-3.373,6.761-3.514a.521.521,0,0,1,.944.439c-.076.167-1.974,4.115-7.705,4.115" transform="translate(94.673 63.667)" fill="#ff804d"/><path d="M27.785,18.888H27.78a4.331,4.331,0,0,1-3.216-1.04.52.52,0,0,1,.757-.712,3.494,3.494,0,0,0,2.459.712h.005a2.66,2.66,0,0,0,2.151-.7.521.521,0,0,1,.853.6c-.081.116-.848,1.146-3,1.146" transform="translate(98.906 68.571)" fill="#ff804d"/><path d="M31.959,34.827A12.081,12.081,0,1,1,44.043,22.743,12.1,12.1,0,0,1,31.959,34.827m0-23.056A10.975,10.975,0,1,0,42.932,22.743,10.986,10.986,0,0,0,31.959,11.771" transform="translate(80.487 43.189)" fill="#fff"/><path d="M37.364,34.827A12.081,12.081,0,1,1,49.448,22.743,12.1,12.1,0,0,1,37.364,34.827m0-23.056A10.975,10.975,0,1,0,48.332,22.743,10.986,10.986,0,0,0,37.364,11.771" transform="translate(102.354 43.189)" fill="#fff"/><path d="M29.286,15.438a.556.556,0,0,1-.5-.313c-.005-.01-.576-1.146-1.56-1.146a2.535,2.535,0,0,0-1.788.985.56.56,0,0,1-.778.111.554.554,0,0,1-.116-.773,3.638,3.638,0,0,1,2.681-1.429,3.138,3.138,0,0,1,2.56,1.772.555.555,0,0,1-.258.737.6.6,0,0,1-.242.056" transform="translate(98.955 52.13)" fill="#fff"/><path d="M27.523,18.311a.539.539,0,0,1-.47-.263c-2.333-3.782-8.13-6.559-8.19-6.59a.553.553,0,1,1,.475-1c.252.116,6.15,2.944,8.655,7.009a.552.552,0,0,1-.182.762.54.54,0,0,1-.288.081" transform="translate(75.107 42.138)" fill="#fff"/><path d="M29.914,17.657a.528.528,0,0,1-.288-.081.552.552,0,0,1-.182-.762c2.515-4.08,8.1-6.367,8.337-6.463a.553.553,0,1,1,.414,1.025c-.056.025-5.489,2.252-7.811,6.019a.539.539,0,0,1-.47.263" transform="translate(118.898 41.747)" fill="#fff"/><path d="M107.005,83.874,91.948,93.827l-1.737,1.151-17.825,11.78a6.646,6.646,0,0,1-9.205-1.878l-20.162-30.5L41.913,72.71,30,54.683a6.651,6.651,0,0,1,1.878-9.205L66.5,22.594A6.637,6.637,0,0,1,75.7,24.473l33.18,50.2a6.643,6.643,0,0,1-1.878,9.205" transform="translate(117.018 87.026)" fill="#ffb109"/><path d="M53.392,59.927c-.651-.02-1.283-.071-1.883-.141-.146-.02-.288-.035-.434-.056-3.848-.545-8.347-2.4-13.033-4.307l-.586-.237c-1.035-.419-2.075-.838-3.116-1.247.116-6.62-.237-13.315,1.1-18.1a12.712,12.712,0,0,1,5.065-7.685,9.322,9.322,0,0,1,7.377-1.636c2.53.525,3.969,2.292,5.15,4.06.045.061.086.121.126.187.136.232.263.465.384.7.944,1.8,1.348,3.54.682,6.842L53.4,41.148l2.944.318a9.782,9.782,0,0,1,4.5,1.727V43.2a9.381,9.381,0,0,1,2.07,2.116l.126.187c1.182,1.762,2.227,3.812,1.8,6.307a9.169,9.169,0,0,1-4.312,6.2,11.619,11.619,0,0,1-7.145,1.919" transform="translate(139.058 106.58)" fill="#fff"/><g transform="translate(158.933 150.305)" opacity="0.3"><g clip-path="url(#d)"><path d="M81.511,60.316l-1.737,1.146L61.944,73.248a6.648,6.648,0,0,1-9.205-1.883L32.582,40.871l-1.106-1.676c2.717-2.7,7.074-6.731,8.1-7.776,1.661-1.687,5.352-2.742,8.857.187,2.939,2.449,26.05,22.419,33.079,28.711" transform="translate(-31.473 -29.768)" fill="#472850"/></g></g><path d="M39.624,32.119l-9.655,20a1.049,1.049,0,0,0,1.338,1.429l17.774-7.115Z" transform="translate(120.927 130.066)" fill="#ffb109"/><path d="M100.025,48.557l-9.306,20.7-.252.566-2.606,5.8L83.014,86.408a6.643,6.643,0,0,1-8.786,3.338l-18.208-8.19L39.276,74.032l-19.93-8.953a6.648,6.648,0,0,1-3.333-8.786l3.242-7.211,13.77-30.64A6.646,6.646,0,0,1,41.81,15.1L96.688,39.771a6.647,6.647,0,0,1,3.338,8.786" transform="translate(62.471 58.796)" fill="#ff4b61"/><g transform="translate(77.896 107.878)" opacity="0.5"><g clip-path="url(#e)"><path d="M39.273,46.313,19.348,37.361a6.641,6.641,0,0,1-3.333-8.786l3.237-7.211Z" transform="translate(-15.428 -21.364)" fill="#472850"/></g></g><path d="M49.557,44.481c-.56.333-1.121.626-1.671.889q-.189.091-.394.182c-3.54,1.6-8.337,2.439-13.315,3.333-.207.04-.414.076-.621.116-1.1.2-2.2.4-3.3.616-3.439-5.66-7.327-11.129-8.751-15.886a12.7,12.7,0,0,1,.172-9.205A9.318,9.318,0,0,1,27.031,19.2c2.419-.909,4.585-.182,6.529.677.066.03.136.056.2.091.242.126.475.252.7.384,1.762,1.02,3.035,2.272,4.236,5.418l.828,2.843L42.179,27.3a9.708,9.708,0,0,1,4.726-.949h.005a9.4,9.4,0,0,1,2.878.687c.071.025.141.056.207.086,1.944.858,3.923,2.03,4.9,4.368a9.151,9.151,0,0,1-.328,7.544,11.635,11.635,0,0,1-5.009,5.443" transform="translate(83.91 76.046)" fill="#fff"/><path d="M20.637,26.524l2.54,22.061a1.051,1.051,0,0,0,1.894.495L36.28,33.558Z" transform="translate(83.568 107.409)" fill="#ff4b61"/><g transform="translate(116.038 130.659)" opacity="0.5"><g clip-path="url(#f)"><path d="M57.272,29.638,52.424,40.418a6.64,6.64,0,0,1-8.781,3.338L25.43,35.571l-2.449-1.737L49.8,25.952c3.752-.495,5.6,1.525,7.468,3.686" transform="translate(-22.977 -25.874)" fill="#472850"/></g></g><path d="M86.435,64.305l-5.519,4.176h-.005L61.6,83.094,38.44,100.606a6.638,6.638,0,0,1-9.3-1.293l-5.731-7.574L19.3,86.316l-1.9-2.525L4.1,66.214A6.644,6.644,0,0,1,5.4,56.908l47.985-36.3A6.644,6.644,0,0,1,62.693,21.9L87.723,55a6.637,6.637,0,0,1-1.288,9.306" transform="translate(11.175 78.01)" fill="#9c5bff"/><g transform="translate(28.571 146.492)" opacity="0.5"><g clip-path="url(#g)"><path d="M69.175,29.011,49.861,43.624,11.672,52.269,7.567,46.846,5.658,44.321c17.224-4.257,53.216-12.311,63.517-15.31" transform="translate(-5.659 -29.012)" fill="#472850"/></g></g><path d="M40.693,34.868c.025.651.01,1.288-.025,1.888-.005.146-.015.293-.025.439-.3,3.873-1.863,8.483-3.469,13.275-.066.2-.136.4-.2.6-.353,1.06-.707,2.126-1.045,3.191-6.615.3-13.275,1.081-18.133.05a12.717,12.717,0,0,1-7.988-4.57A9.324,9.324,0,0,1,7.7,42.487c.364-2.56,2.04-4.11,3.726-5.4.061-.045.116-.091.177-.131.227-.151.449-.3.672-.429,1.742-1.055,3.449-1.57,6.786-1.116l2.893.641.131-2.959a9.709,9.709,0,0,1,1.434-4.605,9.5,9.5,0,0,1,1.984-2.2c.061-.051.116-.1.177-.141,1.687-1.293,3.666-2.464,6.181-2.2a9.173,9.173,0,0,1,6.463,3.908,11.623,11.623,0,0,1,2.368,7.009" transform="translate(30.791 96.834)" fill="#fff"/><path d="M13.7,40.738l20.566,8.367a1.05,1.05,0,0,0,1.343-1.424L27.382,30.392Z" transform="translate(55.489 123.072)" fill="#9c5bff"/><path d="M111.056,82.237,82.981,112.8a6.636,6.636,0,0,1-9.382.4L29.28,72.5a6.3,6.3,0,0,1-.621-.656,6.646,6.646,0,0,1,.222-8.73l21.1-22.965.55-.6,6.428-7a6.646,6.646,0,0,1,9.387-.4l44.314,40.7a6.647,6.647,0,0,1,.4,9.387" transform="translate(109.872 123.095)" fill="#9c5bff"/><g transform="translate(137.005 162.639)" opacity="0.5"><g clip-path="url(#h)"><path d="M49.226,57.143c-2.313,1.06-15.133,5.494-20.571,7.362a6.652,6.652,0,0,1,.227-8.73L49.973,32.81l.555-.6c1.929,5.277,4.994,12.922,5.585,16.012,1.076,5.625-3.934,7.569-6.887,8.922" transform="translate(-27.133 -32.209)" fill="#472850"/></g></g><path d="M56.116,66.266c-.636.141-1.262.237-1.863.318-.141.015-.288.035-.434.051-3.863.4-8.68-.313-13.684-1.035-.212-.03-.419-.061-.631-.086-1.1-.162-2.212-.313-3.323-.459-1.479-6.453-3.444-12.866-3.3-17.83a12.731,12.731,0,0,1,3.065-8.68A9.313,9.313,0,0,1,42.7,35.176c2.58-.1,4.4,1.267,5.979,2.7.056.05.116.1.167.151.187.192.369.389.54.581,1.353,1.525,2.161,3.115,2.313,6.478l-.111,2.959,2.934-.4a9.686,9.686,0,0,1,4.787.591,9.336,9.336,0,0,1,2.52,1.555c.061.051.111.1.167.151,1.575,1.424,3.085,3.161,3.272,5.686a9.167,9.167,0,0,1-2.686,7.059,11.638,11.638,0,0,1-6.468,3.585" transform="translate(133.111 142.424)" fill="#fff"/><path d="M34.8,42.023,30.258,63.756a1.051,1.051,0,0,0,1.641,1.07l15.532-11.2Z" transform="translate(122.432 170.171)" fill="#9c5bff"/><path d="M94.936,78.55,50.183,93.723,37.958,97.874a6.746,6.746,0,0,1-2.661.333,6.648,6.648,0,0,1-5.772-4.494l-2.439-7.2L16.2,54.408a6.645,6.645,0,0,1,4.156-8.422l2.737-.929,10.134-3.434,1.949-.661,42.168-14.3a6.644,6.644,0,0,1,8.422,4.161L99.1,70.122a6.651,6.651,0,0,1-4.161,8.428" transform="translate(64.172 106.539)" fill="#ff4b61"/><path d="M55.058,44.057c-.182.626-.394,1.222-.616,1.787l-.167.4c-1.5,3.58-4.443,7.463-7.478,11.508-.126.172-.252.338-.379.51-.667.889-1.338,1.787-1.995,2.7-6.372-1.8-12.942-3.161-17.229-5.671a12.738,12.738,0,0,1-6.14-6.857,9.3,9.3,0,0,1,.293-7.544c1.151-2.313,3.227-3.257,5.236-3.954.071-.025.141-.051.212-.071q.394-.106.773-.2c1.984-.454,3.767-.4,6.791,1.086L36.9,39.27l1.055-2.762a9.714,9.714,0,0,1,2.818-3.918,9.327,9.327,0,0,1,2.575-1.464l.212-.076c2-.7,4.252-1.187,6.559-.136a9.158,9.158,0,0,1,4.9,5.746,11.618,11.618,0,0,1,.04,7.4" transform="translate(82.605 122.723)" fill="#fff"/><g transform="translate(87.267 147.5)" opacity="0.5"><g clip-path="url(#i)"><path d="M44.373,81.973l-12.23,4.151a6.635,6.635,0,0,1-7.579-2.484,6.624,6.624,0,0,1-.848-1.676l-2.439-7.2L17.283,33.306l10.134-3.434,1.949-.661C33.022,41.6,39.96,65.4,44.373,81.973" transform="translate(-17.28 -29.21)" fill="#472850"/></g></g><path d="M34,38.938c1.2,5.564-6.584,7.039-10.351,8.13a6.683,6.683,0,0,1-4.923-2.823Z" transform="translate(75.822 157.679)" fill="#472850"/><path d="M24.828,43.338,41.713,57.759a1.048,1.048,0,0,0,1.722-.924L41.072,37.829Z" transform="translate(100.539 153.188)" fill="#ff4b61"/><path d="M83.964,82.119,25.552,99.63a6.238,6.238,0,0,1-7.766-4.186L5.637,54.918a6.238,6.238,0,0,1,4.186-7.766L68.23,29.64A6.241,6.241,0,0,1,76,33.826L88.15,74.348a6.241,6.241,0,0,1-4.186,7.771" transform="translate(21.756 118.957)" fill="#ff4b61"/><path d="M44.548,47.314c-.207.621-.439,1.207-.682,1.762-.056.136-.116.268-.177.4-1.631,3.53-4.706,7.3-7.887,11.235-.131.167-.263.328-.394.495-.7.869-1.4,1.742-2.09,2.626C27.011,61.8,20.5,60.211,16.3,57.55a12.733,12.733,0,0,1-5.893-7.069,9.333,9.333,0,0,1,.56-7.534c1.232-2.267,3.343-3.136,5.378-3.762l.212-.066c.268-.061.525-.116.778-.167,2-.379,3.782-.268,6.751,1.323l2.484,1.611,1.156-2.727a9.632,9.632,0,0,1,2.954-3.812v-.005a9.372,9.372,0,0,1,2.626-1.368c.071-.025.141-.045.212-.066,2.03-.626,4.292-1.035,6.559.1a9.179,9.179,0,0,1,4.7,5.918,11.625,11.625,0,0,1-.227,7.392" transform="translate(40.005 134.816)" fill="#fff"/><path d="M14.1,45.818l16.36,15.017a1.049,1.049,0,0,0,1.752-.869L30.532,40.9Z" transform="translate(57.101 165.604)" fill="#ff4b61"/><path d="M136.308,71.571C126.456,85.113,56.415,60.926,33.43,52.519c-4.575-1.676-7.286-2.722-7.286-2.722L28.29,38.108s7.4.611,16.719,1.257c8.468.591,18.516,1.212,26.04,1.449,15.8.49,42.87-1.747,58.619,4.908,0,0,18.451,9.609,6.64,25.848" transform="translate(105.868 154.318)" fill="#ffa86f"/><path d="M39.545,42.385s1.409,5.065-4.186,5.479c0,0,.51,3.338-1.929,4.656-4.575-1.676-7.286-2.722-7.286-2.722L28.29,38.108s7.4.611,16.724,1.257c-.742,1.06-2.282,2.373-5.469,3.02" transform="translate(105.868 154.318)" fill="#472850"/><path d="M10.692,45.835S-7.764,55.444,4.047,71.683,114.215,49.9,114.215,49.9L112.069,38.22S85.11,40.432,69.306,40.926s-42.865-1.747-58.614,4.908" transform="translate(0.402 154.771)" fill="#ffa86f"/><path d="M18.39,39.046s2.328,14.28,6.074,17.522l5.267-1.631s-4.555-9.771-5.065-16.678c0,0-3.928-.227-6.276.788" transform="translate(74.469 154.839)" fill="#472850"/><path d="M22.1,53.295s7.63-12.72,12.669-16.163c2.085-1.419,5.332-2.272,8.428-2.782a3.523,3.523,0,0,1,3.323,5.681l-1.3,1.616s17.3.863,20.253,1.626,1.717,6.266-3.449,7.271c0,0,7.307,3.838-4.757,6.388,0,0,3.893,4.024-4.519,5.206,0,0,4.287,5.448-7.377,5.933l-22.753-.192s-2.5-9.528-.52-14.583" transform="translate(86.415 138.894)" fill="#ffa86f"/></g></g></g></g></g></svg>