<svg xmlns="http://www.w3.org/2000/svg" xmlns:xlink="http://www.w3.org/1999/xlink" width="136" height="136" viewBox="0 0 136 136"><defs><filter id="a" x="0" y="0" width="136" height="136" filterUnits="userSpaceOnUse"><feOffset dy="3" input="SourceAlpha"/><feGaussianBlur stdDeviation="3" result="b"/><feFlood flood-opacity="0.161"/><feComposite operator="in" in2="b"/><feComposite in="SourceGraphic"/></filter></defs><g transform="translate(-1086 -8119.327)"><g transform="matrix(1, 0, 0, 1, 1086, 8119.33)" filter="url(#a)"><circle cx="59" cy="59" r="59" transform="translate(9 6)" fill="#fff"/></g><g transform="translate(1124 8150.324)"><rect width="54" height="38" rx="4" transform="translate(5 15)" fill="#57a4ff"/><path d="M9,19H55V49H9Z" fill="#ffdaaa"/><path d="M26,49H55V19C55,35.582,42.029,49,26,49Z" fill="#ffc477"/><path d="M3,53H61v4a4,4,0,0,1-4,4H7a4,4,0,0,1-4-4Z" fill="#006df0"/><path d="M55,15H53a4,4,0,0,1,4,4V49a4,4,0,0,1-4,4h2a4,4,0,0,0,4-4V19A4,4,0,0,0,55,15Z" fill="#2488ff"/><path d="M59,53v4a4,4,0,0,1-4,4h2a4,4,0,0,0,4-4V53Z" fill="#005ece"/><path d="M29,57h6a2,2,0,0,0,2-2V53H27v2A2,2,0,0,0,29,57Z" fill="#ffcd00"/><path d="M40,32.86A16,16,0,1,1,45.86,11,16,16,0,0,1,40,32.86Z" fill="#ff9811"/><path d="M38,29.39A12,12,0,1,1,42.39,13,12,12,0,0,1,38,29.39Z" fill="#ffcd00"/><path d="M45.232,37.919l-3.464,2-1.732,1L46.95,52.894a4,4,0,0,0,6.928-4L46.964,36.919Z" fill="#004fac"/><path d="M36,14h3V24H36Z" fill="#5eac24"/><path d="M30,17h3v7H30Z" fill="#006df0"/><path d="M24,20h3v4H24Z" fill="#ed1c24"/><path d="M41.569,31.812a14.847,14.847,0,0,1-3.258,1.881l-.1.059,3.56,6.167,3.464-2-3.56-6.167Z" fill="#ff5023"/><path d="M20.741,25.5A13,13,0,1,0,25.5,7.742,13,13,0,0,0,20.741,25.5ZM26.5,9.474a10.93,10.93,0,1,1-5.153,6.672A11,11,0,0,1,26.5,9.474Z"/><path d="M61,52H58.974A4.948,4.948,0,0,0,60,49V19a5.006,5.006,0,0,0-5-5H48.235A16.968,16.968,0,0,0,15.78,14H9a5.006,5.006,0,0,0-5,5V49a4.948,4.948,0,0,0,1.026,3H3a1,1,0,0,0-1,1v4a5.006,5.006,0,0,0,5,5H57a5.006,5.006,0,0,0,5-5V53A1,1,0,0,0,61,52ZM55,16a3,3,0,0,1,3,3V49a2.994,2.994,0,0,1-2.722,2.972A4.983,4.983,0,0,0,55.3,49.94.989.989,0,0,0,56,49V19a1,1,0,0,0-1-1H48.951a16.959,16.959,0,0,0-.237-2ZM15.049,20A16.932,16.932,0,0,0,27.6,35.421a17.109,17.109,0,0,0,4.427.586,16.8,16.8,0,0,0,5.74-1.018L40.4,39.553l-.865.5a1,1,0,0,0-.366,1.366L42.97,48H10V20ZM41.341,33.179l2.525,4.373-1.732,1-2.516-4.358c.3-.149.592-.3.882-.471s.562-.361.841-.544Zm.061,8.106,2.6-1.5,1.732-1,.864-.5,6.41,11.1v.005a3,3,0,1,1-5.2,3Zm6.428-4.867a1,1,0,0,0-1.366-.366l-.866.5-2.641-4.573a17.025,17.025,0,0,0,6-11.979H54V47.106ZM24.5,6.01a14.909,14.909,0,0,1,7.476-2.017A15.011,15.011,0,1,1,24.5,6.01ZM6,19a3,3,0,0,1,3-3h6.283a17.192,17.192,0,0,0-.241,2H9a1,1,0,0,0-1,1V49a1,1,0,0,0,1,1H44.124l1.155,2H9a3,3,0,0,1-3-3ZM36,54v1a1,1,0,0,1-1,1H29a1,1,0,0,1-1-1V54Zm24,3a3,3,0,0,1-3,3H7a3,3,0,0,1-3-3V54H26v1a3,3,0,0,0,3,3h6a3,3,0,0,0,3-3V54h8.5a4.971,4.971,0,0,0,7.821,0H60Z"/><path d="M36,25h3a1,1,0,0,0,1-1V14a1,1,0,0,0-1-1H36a1,1,0,0,0-1,1V24A1,1,0,0,0,36,25Zm1-10h1v8H37Z"/><path d="M30,25h3a1,1,0,0,0,1-1V17a1,1,0,0,0-1-1H30a1,1,0,0,0-1,1v7A1,1,0,0,0,30,25Zm1-7h1v5H31Z"/><path d="M24,25h3a1,1,0,0,0,1-1V20a1,1,0,0,0-1-1H24a1,1,0,0,0-1,1v4A1,1,0,0,0,24,25Zm1-4h1v2H25Z"/><path d="M15,42h2a1,1,0,0,0,0-2H15a1,1,0,0,0,0,2Z"/><path d="M21,42H36a1,1,0,0,0,0-2H21a1,1,0,0,0,0,2Z"/><path d="M15,38h2a1,1,0,0,0,0-2H15a1,1,0,0,0,0,2Z"/><path d="M21,38h4a1,1,0,0,0,0-2H21a1,1,0,0,0,0,2Z"/><path d="M15,46h2a1,1,0,0,0,0-2H15a1,1,0,0,0,0,2Z"/><path d="M21,46H36a1,1,0,0,0,0-2H21a1,1,0,0,0,0,2Z"/></g></g></svg>