<svg xmlns="http://www.w3.org/2000/svg" xmlns:xlink="http://www.w3.org/1999/xlink" width="136" height="136" viewBox="0 0 136 136"><defs><filter id="a" x="0" y="0" width="136" height="136" filterUnits="userSpaceOnUse"><feOffset dy="3" input="SourceAlpha"/><feGaussianBlur stdDeviation="3" result="b"/><feFlood flood-opacity="0.161"/><feComposite operator="in" in2="b"/><feComposite in="SourceGraphic"/></filter></defs><g transform="translate(-384.074 -8119.328)"><g transform="matrix(1, 0, 0, 1, 384.07, 8119.33)" filter="url(#a)"><circle cx="59" cy="59" r="59" transform="translate(9 6)" fill="#fff"/></g><g transform="translate(415.99 8151.32)"><path d="M26.6,41.61l1.873,20.566a1.894,1.894,0,0,1,0,.246,2.729,2.729,0,0,1-5.425.385L20.182,42.68h-2.14L15.164,62.807a2.729,2.729,0,0,1-5.425-.385,1.894,1.894,0,0,1,0-.246L11.622,41.61V25.56l-4.708,11.3a2.493,2.493,0,0,1-4.8-.952,2.621,2.621,0,0,1,.182-.931l5.575-13.91A6.42,6.42,0,0,1,13.827,17H24.4a6.42,6.42,0,0,1,5.96,4.034l5.575,13.91a2.5,2.5,0,1,1-4.622,1.883L26.6,25.56Z" transform="translate(0.07 1.12)" fill="#5e99f7"/><rect width="6.42" height="12.872" transform="translate(43.662 56.778) rotate(-45)" fill="#5d6c7e"/><path d="M50.014,48.94l-2.985-3.028a16.05,16.05,0,1,0-9.116,9.116l3.028,3.028a1.22,1.22,0,0,0,1.7.182l7.6-7.6A1.22,1.22,0,0,0,50.014,48.94Z" transform="translate(1.044 1.612)" fill="#909fb0"/><circle cx="11.77" cy="11.77" r="11.77" transform="translate(21.322 29.891)" fill="#f2f2f2"/><path d="M24.84,10.42A6.42,6.42,0,1,1,18.42,4,6.42,6.42,0,0,1,24.84,10.42Z" transform="translate(0.762 0.21)" fill="#ffd199"/><path d="M63.4,7.2l-.984-.171A17.9,17.9,0,0,1,52.7,2h0a17.9,17.9,0,0,1-9.716,5.029L42,7.2h0a21.261,21.261,0,0,0,8.9,14.884L52.7,23.4l2.236-1.733A21.175,21.175,0,0,0,63.4,7.211Z" transform="translate(2.863 0.07)" fill="#67cc6d"/><path d="M6.942,21.62,1.367,35.53a3.638,3.638,0,0,0-.257,1.316,3.563,3.563,0,0,0,6.859,1.359l2.654-6.313V42.5L8.761,63.029a2.2,2.2,0,0,0,0,.375,3.8,3.8,0,0,0,7.554.535l1.98-13.91a17.12,17.12,0,0,0,2.247,3.028l1.53,10.935a3.8,3.8,0,0,0,7.554-.535,3.328,3.328,0,0,0,0-.342l-.449-4.89a16.863,16.863,0,0,0,9.512-.471l2.739,2.739a2.157,2.157,0,0,0,3.028,0l.749-.76,6.816,6.805L53.53,65.03l-6.805-6.805L49.752,55.2,56.558,62l1.509-1.509-6.784-6.869.76-.749a2.14,2.14,0,0,0,0-3.028L49.3,47.108A17.188,17.188,0,0,0,33.092,24.4h-.546l-1.07-2.8a7.49,7.49,0,0,0-6.955-4.708h-1.5a7.49,7.49,0,1,0-7.683,0H13.9A7.49,7.49,0,0,0,6.942,21.62ZM25.827,65.062a1.637,1.637,0,0,1-1.637-1.423L23,55.325a16.735,16.735,0,0,0,3.948,2.14l.535,5.789v.118a1.669,1.669,0,0,1-1.659,1.691Zm24.61-13.707-7.565,7.565-2.14-2.14A17.12,17.12,0,0,0,48.3,49.216ZM33.092,26.542A14.98,14.98,0,1,1,22.5,30.929a14.98,14.98,0,0,1,10.593-4.387Zm-19.26-16.05a5.35,5.35,0,1,1,5.35,5.35A5.35,5.35,0,0,1,13.832,10.492Zm10.636,8.56a5.35,5.35,0,0,1,4.964,3.359l.889,2.227A17.12,17.12,0,0,0,16.657,46.305L14.175,63.639a1.637,1.637,0,0,1-1.637,1.423A1.669,1.669,0,0,1,10.879,63.4a.877.877,0,0,1,0-.15l1.883-20.662V26.542a1.067,1.067,0,0,0-2.054-.428L6,37.435a1.434,1.434,0,0,1-2.75-.546,1.4,1.4,0,0,1,.107-.535l5.575-13.91A5.35,5.35,0,0,1,13.9,19.052Z" transform="translate(0 0.138)"/><path d="M22.757,48.925a12.84,12.84,0,1,0-3.777-9.1,12.84,12.84,0,0,0,3.777,9.1Zm1.519-16.649a10.7,10.7,0,1,1,0,15.13,10.7,10.7,0,0,1,0-15.13Z" transform="translate(1.251 1.82)"/><path d="M31.675,40.49,33.28,33H29l1.605,7.49Z" transform="translate(1.952 2.241)"/><circle cx="1.605" cy="1.605" r="1.605" transform="translate(31.487 44.871)"/><path d="M63.653,6.211l-.984-.161a16.735,16.735,0,0,1-9.138-4.74,1.07,1.07,0,0,0-1.519,0,16.735,16.735,0,0,1-9.138,4.74l-.984.16A1.07,1.07,0,0,0,41,7.42a22.213,22.213,0,0,0,9.33,15.622l1.8,1.327a1.161,1.161,0,0,0,1.295-.054l2.247-1.733A22.31,22.31,0,0,0,64.541,7.42h0A1.07,1.07,0,0,0,63.653,6.211Zm-9.3,14.68-1.584,1.241-1.166-.8A20.245,20.245,0,0,1,43.269,8.148a18.907,18.907,0,0,0,9.5-4.6,18.875,18.875,0,0,0,9.491,4.6,20.33,20.33,0,0,1-7.907,12.744Z" transform="translate(2.792 0)"/><path d="M49.769,11.7,48.26,13.207l2.268,2.236a1.072,1.072,0,0,0,1.509,0l5.35-5.3L55.825,8.67l-4.537,4.537Z" transform="translate(3.301 0.537)"/></g></g></svg>