<svg xmlns="http://www.w3.org/2000/svg" width="60" height="60" viewBox="0 0 60 60"><g transform="translate(-4.264 -4.264)"><path d="M244.03,465.019h-2.092a.715.715,0,1,0,0,1.43h2.092a.715.715,0,1,0,0-1.43Z" transform="translate(-208.72 -405.846)" fill="#9167f1"/><path d="M81.669,148.09H81.7a2.614,2.614,0,0,0,2.023-.953l9.383-11.345a2.63,2.63,0,0,0-.35-3.7l-.278-.23a2.627,2.627,0,0,0-3.7.35l-7.022,8.49-.852-1.084a2.627,2.627,0,0,0-3.688-.442l-.284.223a2.63,2.63,0,0,0-.442,3.688l3.141,4a2.615,2.615,0,0,0,2.032,1Zm-3.847-7.564.284-.223a1.187,1.187,0,0,1,.737-.256,1.21,1.21,0,0,1,.145.009,1.188,1.188,0,0,1,.8.449l1.4,1.781a.715.715,0,0,0,.553.273.7.7,0,0,0,.56-.259l7.587-9.173a1.2,1.2,0,0,1,1.685-.159l.278.23a1.2,1.2,0,0,1,.159,1.684l-9.383,11.345a1.2,1.2,0,0,1-1.863-.023l-3.141-4a1.2,1.2,0,0,1,.2-1.68Z" transform="translate(-63.13 -111.863)" fill="#9167f1"/><path d="M327.245,221.235a2.609,2.609,0,0,0-.857-1.819l-.267-.243a2.63,2.63,0,0,0-3.71.177l-1.867,2.053-1.867-2.053a2.63,2.63,0,0,0-3.71-.177l-.267.243a2.627,2.627,0,0,0-.177,3.71l2.227,2.45-2.227,2.45a2.627,2.627,0,0,0,.177,3.711l.267.242a2.63,2.63,0,0,0,3.71-.177l1.867-2.053,1.867,2.053a2.629,2.629,0,0,0,3.71.177l.267-.243a2.627,2.627,0,0,0,.177-3.71l-2.227-2.45,2.227-2.45A2.61,2.61,0,0,0,327.245,221.235Zm-1.738.93-2.664,2.931a.715.715,0,0,0,0,.962l2.664,2.931a1.2,1.2,0,0,1-.08,1.69l-.267.243a1.2,1.2,0,0,1-1.69-.081l-2.4-2.635a.715.715,0,0,0-1.058,0l-2.4,2.635a1.2,1.2,0,0,1-1.69.08l-.267-.242a1.2,1.2,0,0,1-.08-1.69l2.664-2.931a.715.715,0,0,0,0-.962l-2.664-2.931a1.2,1.2,0,0,1,.08-1.69l.267-.243a1.2,1.2,0,0,1,1.69.081l2.4,2.635a.715.715,0,0,0,1.058,0l2.4-2.635a1.2,1.2,0,0,1,1.69-.08l.267.243a1.2,1.2,0,0,1,.08,1.69Z" transform="translate(-272.683 -188.698)" fill="#9167f1"/><path d="M273.1,40.8H275.2a.715.715,0,1,0,0-1.43H273.1a.715.715,0,0,0,0,1.43Z" transform="translate(-236.172 -30.921)" fill="#9167f1"/><path d="M207.886,39.369H202a.715.715,0,0,0,0,1.43h5.89a.715.715,0,1,0,0-1.43Z" transform="translate(-173.538 -30.921)" fill="#9167f1"/><circle cx="0.715" cy="0.715" r="0.715" transform="translate(58.01 24.136)" fill="#9167f1"/><path d="M61.637,24.136h-.052a.715.715,0,0,0,0,1.43h.052a1.2,1.2,0,0,1,1.2,1.2V48.041a1.2,1.2,0,0,1-1.2,1.2H59.365a.715.715,0,0,0-.715.715v2.922a.241.241,0,0,1-.411.17l-3.6-3.6a.72.72,0,0,0-.506-.209h-21.1a1.2,1.2,0,0,1-1.2-1.2V41.254H35.49a2.63,2.63,0,0,0,2.627-2.627V25.566H55.865a.715.715,0,0,0,0-1.43H51.713V6.891a2.63,2.63,0,0,0-2.627-2.627H18.4a2.63,2.63,0,0,0-2.627,2.627v7.832H6.891a2.63,2.63,0,0,0-2.627,2.627V38.628a2.63,2.63,0,0,0,2.627,2.627H8.448v2.207A1.67,1.67,0,0,0,11.3,44.643l3.388-3.389h1.081V61.638A2.63,2.63,0,0,0,18.4,64.264H49.087a2.63,2.63,0,0,0,2.627-2.627V50.668H53.84l3.388,3.388a1.671,1.671,0,0,0,2.852-1.181V50.667h1.557a2.63,2.63,0,0,0,2.627-2.627V26.762a2.63,2.63,0,0,0-2.627-2.627ZM17.2,6.891a1.2,1.2,0,0,1,1.2-1.2H49.087a1.2,1.2,0,0,1,1.2,1.2V24.136H38.117V17.349a2.63,2.63,0,0,0-2.627-2.627H17.2Zm-6.91,36.741a.241.241,0,0,1-.411-.17V40.539a.715.715,0,0,0-.715-.715H6.891a1.2,1.2,0,0,1-1.2-1.2V17.349a1.2,1.2,0,0,1,1.2-1.2h28.6a1.2,1.2,0,0,1,1.2,1.2V38.628a1.2,1.2,0,0,1-1.2,1.2h-21.1a.72.72,0,0,0-.506.209Zm38.8,19.2H18.4a1.2,1.2,0,0,1-1.2-1.2V56.943H50.283v4.695A1.2,1.2,0,0,1,49.087,62.834Zm1.2-7.321H17.2V41.254H30.411v6.787a2.63,2.63,0,0,0,2.627,2.627H50.283Z" fill="#9167f1"/></g></svg>