<svg xmlns="http://www.w3.org/2000/svg" xmlns:xlink="http://www.w3.org/1999/xlink" width="190" height="174" viewBox="0 0 190 174"><defs><clipPath id="a"><rect width="190" height="174" transform="translate(1230 2283)" fill="#f6edfb"/></clipPath><clipPath id="b"><rect width="190" height="229.103" fill="none"/></clipPath><clipPath id="d"><path d="M54.2,32.834a6.586,6.586,0,1,0,6.587-6.586A6.587,6.587,0,0,0,54.2,32.834" transform="translate(-54.196 -26.248)" fill="none"/></clipPath><clipPath id="f"><path d="M54.2,65.184A6.586,6.586,0,1,0,60.783,58.6,6.586,6.586,0,0,0,54.2,65.184" transform="translate(-54.196 -58.598)" fill="none"/></clipPath><clipPath id="h"><path d="M54.953,96.853a6.586,6.586,0,1,0,6.586-6.587,6.586,6.586,0,0,0-6.586,6.587" transform="translate(-54.953 -90.266)" fill="none"/></clipPath><clipPath id="j"><rect width="26.568" height="22.055" fill="none"/></clipPath></defs><g transform="translate(-1230 -2283)"><rect width="190" height="174" transform="translate(1230 2283)" fill="#f6edfb"/><g clip-path="url(#a)"><g transform="translate(1230 2272.695)"><g clip-path="url(#b)"><g clip-path="url(#b)"><path d="M40.658,111.231l3.242-7.536v22.292s-6.6-9.01-3.242-14.757" transform="translate(6.123 15.99)" fill="#dd9775" fill-rule="evenodd"/><path d="M130.232,18.416H47.292a3.837,3.837,0,0,0-3.922,3.747v131.4a3.838,3.838,0,0,0,3.922,3.748h82.94a3.839,3.839,0,0,0,3.923-3.748V22.163a3.838,3.838,0,0,0-3.923-3.747" transform="translate(6.688 2.84)" fill="#9167f1"/><path d="M43.369,153.563v-.125h82.775a3.838,3.838,0,0,0,3.922-3.748V18.416h.165a3.838,3.838,0,0,1,3.923,3.747v131.4a3.838,3.838,0,0,1-3.923,3.747H47.292a3.838,3.838,0,0,1-3.923-3.747" transform="translate(6.688 2.84)" fill="#723a93"/><path d="M53.951,23.51h67.73a4.315,4.315,0,0,1,4.409,4.213V137.267a4.314,4.314,0,0,1-4.409,4.212H53.951a4.314,4.314,0,0,1-4.409-4.212V27.723a4.315,4.315,0,0,1,4.409-4.213" transform="translate(7.64 3.625)" fill="#f7faff"/><path d="M49.749,138.673a4.526,4.526,0,0,0,2.542.774h67.731a4.314,4.314,0,0,0,4.408-4.212V25.69a4.038,4.038,0,0,0-.3-1.509A4.152,4.152,0,0,1,126,27.618V137.164a4.314,4.314,0,0,1-4.409,4.212H53.861a4.4,4.4,0,0,1-4.112-2.7" transform="translate(7.672 3.729)" fill="#eaedf2"/><path d="M83.248,135.434a3.944,3.944,0,1,1,4.125-3.94,4.036,4.036,0,0,1-4.125,3.94" transform="translate(12.201 19.67)" fill="#723a93"/><path d="M83.132,134.492a3.113,3.113,0,1,1,3.255-3.109,3.184,3.184,0,0,1-3.255,3.109" transform="translate(12.318 19.781)" fill="#522969"/><path d="M107.414,37.357H72.63a3.78,3.78,0,1,1,0-7.56h34.784a3.78,3.78,0,1,1,0,7.56" transform="translate(10.617 4.595)" fill="#f95d52" fill-rule="evenodd"/><path d="M76.243,36.307l-1.834-.994-1.859.948.379-2.052-1.475-1.475,2.068-.274.946-1.859.9,1.883,2.06.325-1.512,1.438Z" transform="translate(11.019 4.719)" fill="#ffdc45" fill-rule="evenodd"/><path d="M83.067,36.307l-1.834-.994-1.859.948.379-2.052-1.475-1.475,2.068-.274.946-1.859.9,1.883,2.06.325L82.74,34.247Z" transform="translate(12.071 4.719)" fill="#c94b43" fill-rule="evenodd"/><path d="M89.595,36.307l-1.834-.994-1.859.948.379-2.052-1.475-1.475,2.068-.274L87.82,30.6l.9,1.883,2.06.325-1.512,1.438Z" transform="translate(13.078 4.719)" fill="#c94b43" fill-rule="evenodd"/><path d="M96.123,36.307l-1.834-.994-1.859.948.379-2.052-1.475-1.475L93.4,32.46l.946-1.859.9,1.883,2.06.325L95.8,34.247Z" transform="translate(14.084 4.719)" fill="#c94b43" fill-rule="evenodd"/><path d="M102.651,36.307l-1.834-.994-1.859.948.379-2.052-1.475-1.475,2.068-.274.946-1.859.9,1.883,2.06.325-1.512,1.438Z" transform="translate(15.091 4.719)" fill="#c94b43" fill-rule="evenodd"/><path d="M67.369,32.8a6.586,6.586,0,1,1-6.586-6.586A6.586,6.586,0,0,1,67.369,32.8" transform="translate(8.358 4.043)" fill="#f0f0f0"/></g><g transform="translate(62.553 30.296)"><g clip-path="url(#d)"><path d="M63.443,30.41s1.393,4.581-.364,5.682-5.1-.463-5.1-.463l2.286-5.922" transform="translate(-53.612 -25.715)" fill="#ccc"/><path d="M61.764,34.814s-.247,2.673,3.538,1.038l-.4,3.322-7.387-.645-.56-1.455a6.08,6.08,0,0,1,2-.518c.89-.01.077-1.915.077-1.915Z" transform="translate(-53.77 -24.954)" fill="#ccc"/><path d="M63.543,32.239c.253,1.945-.7,3.441-2.546,3.6a3.673,3.673,0,0,1-3.885-3.054,3.169,3.169,0,0,1,2.911-3.576,3.3,3.3,0,0,1,3.52,3.025" transform="translate(-53.751 -25.793)" fill="#d4d4d4"/><path d="M59.509,30.575a1.291,1.291,0,0,1,.088.951s4.489-.464,4.372-1.057-.614-1.848-1.507-2.015a4.178,4.178,0,0,0-4.537-.048c-1.521,1.051-1.823,3.037-1.978,4.74a6.086,6.086,0,0,0,.143,1.96,6.263,6.263,0,0,0,.3.938,2.04,2.04,0,0,0,.42.777c.212.175.8.057,1.058.042.388-.022.773-.055,1.16-.1.439-.045.878-.1,1.316-.16,0,0-1.978-3.849-.838-6.031" transform="translate(-53.93 -26.019)" fill="#ccc"/></g></g><text transform="translate(63.466 45.64)" fill="#5c9cbb" font-size="1" font-family="Quicksand-Bold, Quicksand" font-weight="700"><tspan x="0" y="0" letter-spacing="0.074em">A</tspan><tspan y="0" letter-spacing="0.075em">NGELA SMI</tspan><tspan y="0" letter-spacing="0.074em">T</tspan><tspan y="0">H</tspan></text><g clip-path="url(#b)"><path d="M117.138,39.767H69.511a.577.577,0,1,1,0-1.153h47.627a.577.577,0,1,1,0,1.153" transform="translate(10.63 5.955)" fill="#d6e9f5"/><path d="M117.138,41.892H69.511a.577.577,0,1,1,0-1.153h47.627a.577.577,0,1,1,0,1.153" transform="translate(10.63 6.282)" fill="#d6e9f5"/><path d="M117.138,44.156H69.511a.577.577,0,1,1,0-1.153h47.627a.577.577,0,1,1,0,1.153" transform="translate(10.63 6.631)" fill="#d6e9f5"/><path d="M107.414,69.707H72.63a3.78,3.78,0,0,1,0-7.56h34.784a3.78,3.78,0,0,1,0,7.56" transform="translate(10.617 9.583)" fill="#f95d52" fill-rule="evenodd"/><path d="M76.243,68.657l-1.834-.994-1.859.948.379-2.052-1.475-1.475,2.068-.274.946-1.859.9,1.883,2.06.325L75.917,66.6Z" transform="translate(11.019 9.707)" fill="#ffdc45" fill-rule="evenodd"/><path d="M83.067,68.657l-1.834-.994-1.859.948.379-2.052-1.475-1.475,2.068-.274.946-1.859.9,1.883,2.06.325L82.74,66.6Z" transform="translate(12.071 9.707)" fill="#ffdc45" fill-rule="evenodd"/><path d="M89.595,68.657l-1.834-.994-1.859.948.379-2.052-1.475-1.475,2.068-.274.946-1.859.9,1.883,2.06.325L89.268,66.6Z" transform="translate(13.078 9.707)" fill="#c94b43" fill-rule="evenodd"/><path d="M96.123,68.657l-1.834-.994-1.859.948.379-2.052-1.475-1.475L93.4,64.81l.946-1.859.9,1.883,2.06.325L95.8,66.6Z" transform="translate(14.084 9.707)" fill="#c94b43" fill-rule="evenodd"/><path d="M102.651,68.657l-1.834-.994-1.859.948.379-2.052-1.475-1.475,2.068-.274.946-1.859.9,1.883,2.06.325L102.325,66.6Z" transform="translate(15.091 9.707)" fill="#c94b43" fill-rule="evenodd"/><path d="M67.369,65.151a6.586,6.586,0,1,1-6.586-6.586,6.586,6.586,0,0,1,6.586,6.586" transform="translate(8.358 9.031)" fill="#f0f0f0"/></g><g transform="translate(62.553 67.634)"><g clip-path="url(#f)"><path d="M63.443,62.76s1.393,4.581-.364,5.682-5.1-.463-5.1-.463l2.286-5.922" transform="translate(-53.612 -58.065)" fill="#ccc"/><path d="M61.764,67.164S61.517,69.837,65.3,68.2l-.4,3.322-7.387-.645-.56-1.455a6.079,6.079,0,0,1,2-.518c.89-.01.077-1.915.077-1.915Z" transform="translate(-53.77 -57.304)" fill="#ccc"/><path d="M63.543,64.589c.253,1.945-.7,3.441-2.546,3.6a3.673,3.673,0,0,1-3.885-3.054,3.169,3.169,0,0,1,2.911-3.576,3.3,3.3,0,0,1,3.52,3.025" transform="translate(-53.751 -58.143)" fill="#d4d4d4"/><path d="M59.509,62.925a1.291,1.291,0,0,1,.088.951s4.489-.464,4.372-1.057-.614-1.848-1.507-2.015a4.178,4.178,0,0,0-4.537-.048C56.4,61.806,56.1,63.791,55.946,65.5a6.086,6.086,0,0,0,.143,1.96,6.263,6.263,0,0,0,.3.938,2.04,2.04,0,0,0,.42.777c.212.175.8.057,1.058.042.388-.022.773-.055,1.16-.1.439-.045.878-.1,1.316-.16,0,0-1.978-3.849-.838-6.031" transform="translate(-53.93 -58.369)" fill="#ccc"/></g></g><text transform="translate(64.171 82.978)" fill="#5c9cbb" font-size="1" font-family="Quicksand-Bold, Quicksand" font-weight="700"><tspan x="0" y="0" letter-spacing="0.075em">NI</tspan><tspan y="0" letter-spacing="0.054em">C</tspan><tspan y="0" letter-spacing="0.075em">OLE F</tspan><tspan y="0" letter-spacing="0.074em">I</tspan><tspan y="0" letter-spacing="0.075em">LL</tspan><tspan y="0">S</tspan></text><g clip-path="url(#b)"><path d="M117.138,72.117H69.511a.577.577,0,1,1,0-1.153h47.627a.577.577,0,1,1,0,1.153" transform="translate(10.63 10.943)" fill="#d6e9f5"/><path d="M117.138,74.242H69.511a.577.577,0,1,1,0-1.153h47.627a.577.577,0,1,1,0,1.153" transform="translate(10.63 11.271)" fill="#d6e9f5"/><path d="M117.138,76.506H69.511a.577.577,0,1,1,0-1.153h47.627a.577.577,0,1,1,0,1.153" transform="translate(10.63 11.62)" fill="#d6e9f5"/><path d="M69.707,84.916h0a6.223,6.223,0,0,1,6.223-6.223h6.678a6.223,6.223,0,0,1,0,12.447H75.93a6.223,6.223,0,0,1-6.223-6.223" transform="translate(10.749 12.135)" fill="#ebebeb"/><path d="M83.324,84.713a4.7,4.7,0,1,1-4.7-4.7,4.7,4.7,0,0,1,4.7,4.7" transform="translate(11.399 12.338)" fill="#ffd23d"/><path d="M76.953,83.132c0,.424-.185.768-.413.768s-.413-.344-.413-.768.185-.768.413-.768.413.344.413.768" transform="translate(11.739 12.701)" fill="#cc792b"/><path d="M79.9,83.132c0,.424-.185.768-.413.768s-.413-.344-.413-.768.185-.768.413-.768.413.344.413.768" transform="translate(12.194 12.701)" fill="#cc792b"/><path d="M3.786.5H0A.5.5,0,0,1-.5,0,.5.5,0,0,1,0-.5H3.786a.5.5,0,0,1,.5.5A.5.5,0,0,1,3.786.5Z" transform="translate(88.126 98.74)" fill="#cc792b"/><path d="M0,1.076a.5.5,0,0,1-.5-.5V0A.5.5,0,0,1,0-.5.5.5,0,0,1,.5,0V.576A.5.5,0,0,1,0,1.076Z" transform="translate(88.047 98.463)" fill="#cc792b"/><path d="M0,1.076a.5.5,0,0,1-.5-.5V0A.5.5,0,0,1,0-.5.5.5,0,0,1,.5,0V.576A.5.5,0,0,1,0,1.076Z" transform="translate(91.912 98.463)" fill="#cc792b"/><path d="M68.592,52.2h0a6.224,6.224,0,0,1,6.223-6.223h6.678a6.224,6.224,0,0,1,0,12.448H74.815A6.224,6.224,0,0,1,68.592,52.2" transform="translate(10.577 7.09)" fill="#ebebeb"/><path d="M82.209,52a4.7,4.7,0,1,1-4.7-4.7,4.7,4.7,0,0,1,4.7,4.7" transform="translate(11.227 7.294)" fill="#ffd23d"/><path d="M75.872,50.5c0,.424-.185.768-.413.768s-.413-.344-.413-.768.185-.768.413-.768.413.344.413.768" transform="translate(11.573 7.669)" fill="#cc792b"/><path d="M78.818,50.5c0,.424-.185.768-.413.768s-.413-.344-.413-.768.185-.768.413-.768.413.344.413.768" transform="translate(12.027 7.669)" fill="#cc792b"/><path d="M79.41,53.749a.5.5,0,0,1-.379-.173,2.1,2.1,0,0,0-3.7-.047.5.5,0,0,1-.829-.559,3.573,3.573,0,0,1,2.464-1.516,3.5,3.5,0,0,1,2.818,1.468.5.5,0,0,1-.378.827Z" transform="translate(11.553 8.011)" fill="#d47e37"/><path d="M75.194,53.9a.5.5,0,0,1-.464-.313c-.052-.129-.132-.132-.133-.132a.5.5,0,1,1-.056-1,1.159,1.159,0,0,1,1.116.756.5.5,0,0,1-.463.687Z" transform="translate(11.499 8.165)" fill="#d47e37"/><path transform="translate(12.127 8.165)" fill="#d47e37"/><path d="M118.441,113.964H57.352a1.254,1.254,0,0,1,0-2.508h61.089a1.254,1.254,0,0,1,0,2.508" transform="translate(8.651 17.187)" fill="#d6e9f5"/><path d="M57.109,113.144c-.212,0-.384-.238-.384-.53s.172-.531.384-.531h44.266c.211,0,.383.238.383.531s-.172.53-.383.53Z" transform="translate(8.747 17.284)" fill="#f95d52"/><path d="M87.7,112.568h0a3.63,3.63,0,0,1,3.63-3.63h3.9a3.63,3.63,0,1,1,0,7.26h-3.9a3.63,3.63,0,0,1-3.63-3.63" transform="translate(13.523 16.799)" fill="#87bdeb"/><path d="M91,113.3a.448.448,0,0,0,0-.893.418.418,0,0,0,0-.837.419.419,0,0,1,.418-.419c-.248,0-.293-.148-.26-.4.028-.211,1.6-.434,1.811-.434h1.929a.428.428,0,0,1,.429.362.419.419,0,0,1-.414.474h.428a.429.429,0,0,1,.431.362.419.419,0,0,1-.414.474h.379a.515.515,0,0,1,.381.164c.3.328-.114.674-.426.674h.375a.42.42,0,0,1,.416.474.43.43,0,0,1-.431.362H93.72l.036.076a1.284,1.284,0,0,1,.067.95,2.468,2.468,0,0,1-.205.459c-.365.638-.832.4-.945.285s.125-.8.091-.968a.418.418,0,0,0-.05-.11,2.224,2.224,0,0,0-1.554-.886" transform="translate(14.032 17.011)" fill="#fffdf7"/><path d="M90.824,110.159h0a.717.717,0,0,0-.714.714v2.42a.714.714,0,1,0,1.429,0v-2.42a.717.717,0,0,0-.714-.714" transform="translate(13.896 16.987)" fill="#d6e9f5"/><path d="M108.172,101.376H73.387a3.78,3.78,0,1,1,0-7.56h34.784a3.78,3.78,0,0,1,0,7.56" transform="translate(10.734 14.467)" fill="#f95d52" fill-rule="evenodd"/><path d="M77,100.326l-1.834-.994-1.859.948.379-2.052L72.21,96.753l2.068-.274.946-1.859.9,1.883,2.06.325-1.512,1.438Z" transform="translate(11.135 14.591)" fill="#ffdc45" fill-rule="evenodd"/><path d="M83.823,100.326l-1.834-.994-1.859.948.379-2.052-1.475-1.475,2.068-.274.946-1.859.9,1.883,2.06.325L83.5,98.266Z" transform="translate(12.188 14.591)" fill="#c94b43" fill-rule="evenodd"/><path d="M90.352,100.326l-1.834-.994-1.859.948.379-2.052-1.475-1.475,2.068-.274.946-1.859.9,1.883,2.06.325-1.512,1.438Z" transform="translate(13.194 14.591)" fill="#c94b43" fill-rule="evenodd"/><path d="M96.88,100.326l-1.834-.994-1.859.948.379-2.052L92.09,96.753l2.068-.274L95.1,94.62l.9,1.883,2.06.325-1.512,1.438Z" transform="translate(14.201 14.591)" fill="#c94b43" fill-rule="evenodd"/><path d="M103.408,100.326l-1.834-.994-1.859.948.379-2.052-1.475-1.475,2.068-.274.946-1.859.9,1.883,2.06.325-1.512,1.438Z" transform="translate(15.208 14.591)" fill="#c94b43" fill-rule="evenodd"/><path d="M68.126,96.82a6.586,6.586,0,1,1-6.586-6.586,6.586,6.586,0,0,1,6.586,6.586" transform="translate(8.474 13.915)" fill="#f0f0f0"/></g><text transform="translate(63.99 119.53)" fill="#5c9cbb" font-size="1" font-family="Quicksand-Bold, Quicksand" font-weight="700"><tspan x="0" y="0" letter-spacing="0.075em">J</tspan><tspan y="0" letter-spacing="0.074em">HO</tspan><tspan y="0" letter-spacing="0.075em">N</tspan><tspan y="0" letter-spacing="0.074em">H</tspan><tspan y="0" xml:space="preserve" letter-spacing="0.075em"> CU</tspan><tspan y="0" letter-spacing="0.074em">R</tspan><tspan y="0" letter-spacing="0.075em">S</tspan><tspan y="0" letter-spacing="0.074em">O</tspan><tspan y="0">N</tspan></text><g transform="translate(63.427 104.186)"><g clip-path="url(#h)"><path d="M61.987,102.183l.3-1.649.009,0,.016,0,.032.009.024.007.008,0h0a2.029,2.029,0,0,0,2.28-.693c.41-.672.242-2.322.015-3.647a.81.81,0,0,0,.322-1.238c.189-.091.275-.315.238-.69a.473.473,0,0,0-.6-.372A.723.723,0,0,0,65,93.194a.715.715,0,0,0-.6-.554,2.431,2.431,0,0,0-1.027.2.836.836,0,0,0,.009-.092.813.813,0,0,0-1.507-.425.808.808,0,0,0-.554-.222.966.966,0,0,0-.1.01.476.476,0,0,0-.933,0,.722.722,0,0,0-.151-.016.734.734,0,0,0-.734.734c0,.013,0,.025,0,.038a.744.744,0,0,0-.222-.038.731.731,0,0,0-.542,1.225.473.473,0,0,0,.073.8,3.79,3.79,0,0,0-.158.821v0a5.211,5.211,0,0,0,1.032,3.238,1.392,1.392,0,0,1-.015.17,15.219,15.219,0,0,1-.856,2.585s-2.289-.1-2.671.621v.381a1.448,1.448,0,0,0,1.443,1.443h8.2a11.146,11.146,0,0,0-3.711-1.93" transform="translate(-54.784 -90.041)" fill="#d4d4d4"/></g></g><text transform="translate(85.106 121.414)" fill="#5c9cbb" font-size="3" font-family="Helvetica"><tspan x="0" y="0" letter-spacing="0.075em">%#$</tspan><tspan y="0" letter-spacing="0.074em">&amp;</tspan><tspan y="0" letter-spacing="0.075em">”</tspan><tspan y="0">!</tspan></text><g clip-path="url(#b)"><path d="M0,1.459a.5.5,0,0,1-.25-.068A.5.5,0,0,1-.433.708L.124-.251A.5.5,0,0,1,.807-.433.5.5,0,0,1,.989.251L.433,1.21A.5.5,0,0,1,0,1.459Z" transform="translate(99.641 118.893)" fill="#5c9cbb"/><path d="M0,.964A.5.5,0,0,1-.455.671.5.5,0,0,1-.207.009L.813-.455a.5.5,0,0,1,.662.248.5.5,0,0,1-.248.662L.207.919A.5.5,0,0,1,0,.964Z" transform="translate(100.198 119.853)" fill="#5c9cbb"/><path d="M.557,1.459A.5.5,0,0,1,.124,1.21L-.433.251A.5.5,0,0,1-.251-.433a.5.5,0,0,1,.683.182L.989.708a.5.5,0,0,1-.432.751Z" transform="translate(83.627 118.893)" fill="#5c9cbb"/><path d="M1.02.964A.5.5,0,0,1,.813.919L-.207.455A.5.5,0,0,1-.455-.207.5.5,0,0,1,.207-.455l1.02.464A.5.5,0,0,1,1.02.964Z" transform="translate(82.606 119.853)" fill="#5c9cbb"/><path d="M115.671,139.768l2.267-2.735s.815,6.841-.184,6.774c-.395-.027-1.362-2.166-2.4-4.834a87.1,87.1,0,0,1-3.395-10.275c-.133-1.465-4.792-9.717-5.474-11.048s-5.773-13.046-9.368-10.426.951,12.822.951,12.822c.419,4.791,3.508,11.115,3.508,11.115.466,5.457,4.909,22.263,4.909,22.263a18.262,18.262,0,0,0-3.444-3.145,5.841,5.841,0,0,0-7.687.249c-1.449,1.4,3.344,5.641,3.244,7.987s.8,4.094,1.9,6.989.45,8.137,4.043,13.677,31.15,25.458,32.647,26.806,3.994,6.639,3.994,6.639h31.948s-13.578-24.061-15.875-26.656-3.294-2.4-4.992-5.391-2.628-15.474-2.895-18.4a32.152,32.152,0,0,0-1.7-8.752c-1.2-3.395-.4-14.776-4.493-16.374s-4.892,2.4-4.892,2.4.2.5-1-7.388-8.487-5.025-8.487-5.025.044-5.883-5.148-6.083-12.306,10.508-12.306,10.508" transform="translate(14.663 16.476)" fill="#f7b283"/><path d="M104,113.084s-3.04,2.455-4.64.838-3.632-6.208-3.465-6.512,3.109-1.56,4.087-1.058c1.814.933,4.018,6.732,4.018,6.732" transform="translate(14.787 16.382)" fill="#dd9775"/><path d="M99.122,153s3.016-.956,2.038-3.622a37.159,37.159,0,0,0-4-6.759,26.018,26.018,0,0,0-2.577,2.316c-.267.444,4.537,8.064,4.537,8.064" transform="translate(14.584 21.993)" fill="#dd9775"/><path d="M104.777,146.476a115.7,115.7,0,0,1,5.478,14.258,24.807,24.807,0,0,1-5.478-14.258" transform="translate(16.157 22.588)" fill="#dd9775"/><path d="M124.4,124.336a93.423,93.423,0,0,1,0,23.329,93.423,93.423,0,0,1,0-23.329" transform="translate(19.07 19.173)" fill="#dd9775"/><path d="M132.614,135.091a15.216,15.216,0,0,1,0,9.317,15.216,15.216,0,0,1,0-9.317" transform="translate(20.337 20.832)" fill="#dd9775"/><path d="M114.746,132.067s-.725-4.145.988-4.743-.724,7.5-.724,7.5Z" transform="translate(17.671 19.629)" fill="#dd9775"/><path d="M103.7,112.563s-2.742,2.123-4.341.653-3.632-5.638-3.466-5.914,3.111-1.417,4.088-.961c1.813.847,3.719,6.222,3.719,6.222" transform="translate(14.787 16.382)" fill="#edd0af"/><path d="M98.741,153s3.016-.956,2.038-3.622a37.159,37.159,0,0,0-4-6.759,26.016,26.016,0,0,0-2.577,2.316c-.267.444,4.537,8.064,4.537,8.064" transform="translate(14.525 21.993)" fill="#edd0af"/><path d="M51.155,139.317c-.57-6.013-1.854-16.234-3.422-19.656A14.716,14.716,0,0,1,46.4,113.1a28.758,28.758,0,0,1,1.235-6.75,30.517,30.517,0,0,0,2-13.6c-.665-5.419-3.613-5.7-5.7-5.893s-.951,2.377-1.331,5.7-.761,3.328-3.042,7.225-4.943,13.309-6.94,19.585-.855,12.835-1.712,19.941-1.711,4.017-2.281,8.865S2.9,199.624,2.9,199.624H38.872s9.288-26.176,13-32.035,8.841-6.145,13.12-11.136,7.843-8.557,9.84-9.841H60.452a9.49,9.49,0,0,1-8.925-6.266Z" transform="translate(0.447 13.393)" fill="#f7b283"/><g transform="translate(48.707 140.448)" opacity="0.6"><g clip-path="url(#j)"><path d="M46.521,142.833c4.643,2.731,22.245-1.582,22.245-1.582H54.392a9.007,9.007,0,0,1-7.73-4.1,17.376,17.376,0,0,1-2.231-7.564,66.849,66.849,0,0,0-.92-7.9c-.248,2.147-.536,4.945-.748,6.891-.322,2.955-1.01,5.531-.141,8.373.714,2.336,1.909,4.715,3.9,5.885" transform="translate(-42.2 -121.684)" fill="#dd9775"/></g></g><path d="M37.107,95.046s2.67.908,3.309-1.686a18.886,18.886,0,0,0,.04-6.229l-3.35-.279Z" transform="translate(5.722 13.393)" fill="#dd9775"/><path d="M36.993,94.734a2.224,2.224,0,0,0,3.057-1.686,21.893,21.893,0,0,0,0-6.509H36.993Z" transform="translate(5.705 13.345)" fill="#edd0af"/></g></g></g></g></g></svg>