<svg xmlns="http://www.w3.org/2000/svg" xmlns:xlink="http://www.w3.org/1999/xlink" width="136" height="136" viewBox="0 0 136 136"><defs><filter id="a" x="0" y="0" width="136" height="136" filterUnits="userSpaceOnUse"><feOffset dy="3" input="SourceAlpha"/><feGaussianBlur stdDeviation="3" result="b"/><feFlood flood-opacity="0.161"/><feComposite operator="in" in2="b"/><feComposite in="SourceGraphic"/></filter></defs><g transform="translate(-737.074 -8119.327)"><g transform="matrix(1, 0, 0, 1, 737.07, 8119.33)" filter="url(#a)"><circle cx="59" cy="59" r="59" transform="translate(9 6)" fill="#fff"/></g><g transform="translate(772.675 8151.067)"><path d="M68.615,86.855A30.077,30.077,0,1,1,38.537,56.777,30.078,30.078,0,0,1,68.615,86.855Zm0,0" transform="translate(-6.89 -49.141)" fill="#937de2"/><path d="M202,56.777a30.337,30.337,0,0,0-4.675.362,30.081,30.081,0,0,1,0,59.43A30.078,30.078,0,1,0,202,56.777Zm0,0" transform="translate(-170.355 -49.14)" fill="#7570d6"/><path d="M221.951,43.28,204.776,54.653a5.849,5.849,0,0,1-4.155.9,5.868,5.868,0,0,0-4.165.9l-2.3,1.523L181.286,39l3.158-13.643a14.235,14.235,0,0,0-2-11.073,3.4,3.4,0,0,1,5.208-4.324l2.046,1.982a21.872,21.872,0,0,1,5.278,8.091l1.11,2.987,11.424-7.548a3.9,3.9,0,0,1,5.458,1.189,3.947,3.947,0,0,1-1.224,5.351.043.043,0,0,0-.016.054.044.044,0,0,0,.056.022,3.859,3.859,0,0,1,1.392-.258A3.894,3.894,0,0,1,217,26.48a3.982,3.982,0,0,1-1.633,2.467.084.084,0,0,0-.022.116,0,0,0,0,0,0,0,.082.082,0,0,0,.11.022,3.993,3.993,0,0,1,.945-.111,4.106,4.106,0,0,1,2.2.637,3.827,3.827,0,0,1,1.136,1.115,3.894,3.894,0,0,1-1.1,5.4c-.044.03-.088.06-.132.088a.061.061,0,0,0-.02.076.037.037,0,0,0,.014.014.063.063,0,0,0,.077,0,3.814,3.814,0,0,1,3.305.426,3.955,3.955,0,0,1,1.163,1.154,3.9,3.9,0,0,1-1.1,5.4Zm0,0" transform="translate(-156.47 -7.789)" fill="#fdd7bd"/><path d="M46.56,237.881l-7.245,4.8-10.461,6.928a30.11,30.11,0,0,1-18.292-23.664L22.7,217.9l7.39-4.894a1.848,1.848,0,0,1,2.562.522l14.428,21.785a1.851,1.851,0,0,1-.522,2.564Zm0,0" transform="translate(-8.709 -184.094)" fill="#87dbff"/><path d="M124.682,237.881l-7.245,4.8L100.824,217.9l7.39-4.894a1.848,1.848,0,0,1,2.562.522L125.2,235.316a1.851,1.851,0,0,1-.522,2.564Zm0,0" transform="translate(-86.83 -184.094)" fill="#6fc7ff"/><g transform="translate(50.752 14.04)"><path d="M382.21,105.012l-5.715,3.058a1.852,1.852,0,0,1-2.362-.531l4.506-2.915a.043.043,0,0,0,.056.022,3.859,3.859,0,0,1,1.392-.258A3.923,3.923,0,0,1,382.21,105.012Zm0,0" transform="translate(-374.133 -104.387)" fill="#fac5aa"/><path d="M407.561,158.164l-5.59,2.989a1.85,1.85,0,0,1-2.362-.53l4.506-2.915.194-.091a.082.082,0,0,0,.11.022,4,4,0,0,1,.945-.111A4.1,4.1,0,0,1,407.561,158.164Zm0,0" transform="translate(-396.183 -150.38)" fill="#fac5aa"/><path d="M436.258,211.132l-4.924,2.634a1.852,1.852,0,0,1-2.361-.531l3.9-2.525a.063.063,0,0,0,.077,0,3.814,3.814,0,0,1,3.305.426Zm0,0" transform="translate(-421.597 -196.234)" fill="#fac5aa"/></g><path d="M67.47,29.5a4.932,4.932,0,0,0-3.054-2.1,4.96,4.96,0,0,0-3.308-7.151,4.972,4.972,0,0,0-.257-5.053,4.928,4.928,0,0,0-3.054-2.1,4.966,4.966,0,0,0-7.138-6.449L45.713,9.916a30.893,30.893,0,0,0-8.347-2.825,22.953,22.953,0,0,0-3.185-3.854L32.136,1.256A4.475,4.475,0,0,0,25.29,6.94q.08.122.158.245a31.149,31.149,0,1,0,35.5,41.109,1.07,1.07,0,1,0-2.014-.727,29.045,29.045,0,0,1-36.45,17.678L31.2,59.476h0l7.24-4.795h0a2.921,2.921,0,0,0,.823-4.047l-.1-.145,1.406-.931a4.769,4.769,0,0,1,3.4-.734,6.9,6.9,0,0,0,4.92-1.064l11.665-7.725a29.069,29.069,0,0,1-.395,3.007,1.07,1.07,0,0,0,.857,1.248,1.045,1.045,0,0,0,.2.018,1.071,1.071,0,0,0,1.051-.876,31.314,31.314,0,0,0,.512-4.87l3.287-2.177a4.967,4.967,0,0,0,1.4-6.883ZM43.635,11.293l-3.271,2.167-.644-1.735A22.913,22.913,0,0,0,38.8,9.6a28.741,28.741,0,0,1,4.834,1.7ZM9.729,18.716A29.009,29.009,0,0,1,26.472,9.169a13.228,13.228,0,0,1,.667,8.011L24.529,28.459a2.915,2.915,0,0,0-3.737-.436L13.4,32.92h0L2.731,39.983c-.058-.752-.089-1.51-.089-2.268a29,29,0,0,1,7.087-19ZM37.595,52.4a.775.775,0,0,1-.334.495h0L30.9,57.1,19.1,39.5A1.071,1.071,0,0,0,17.321,40.7l11.8,17.591L20.039,64.3A29.1,29.1,0,0,1,3.011,42.325l10.678-7.048,1.229,1.834A1.071,1.071,0,0,0,16.7,35.918l-1.22-1.82,6.5-4.29a.779.779,0,0,1,1.079.22L37.481,51.814a.772.772,0,0,1,.113.584ZM66.1,32.805A2.806,2.806,0,0,1,64.888,34.6L61.13,37.087l0,0L47.713,45.972a4.767,4.767,0,0,1-3.4.734,6.907,6.907,0,0,0-4.92,1.064l-1.406.931L26.172,30.859l3.054-13.195A15.384,15.384,0,0,0,28.1,7.565a1.049,1.049,0,0,0-.045-.1,15.146,15.146,0,0,0-.98-1.713,2.334,2.334,0,0,1,3.57-2.964L32.69,4.775a20.92,20.92,0,0,1,5.02,7.694l1.114,3,.006.016.008.021c.008.018.015.035.023.049a1.056,1.056,0,0,0,.074.132,1.07,1.07,0,0,0,1.484.3L51.84,8.428a2.825,2.825,0,1,1,3.12,4.71l-.991.657h0L51.756,15.26l-.008.006-.035.026a1.07,1.07,0,0,0,1.226,1.754l2.213-1.466a2.825,2.825,0,0,1,3.118,4.712l-3.2,2.122A1.071,1.071,0,1,0,56.248,24.2l.5-.328,1.716-1.136a2.825,2.825,0,0,1,3.12,4.711l-1.6,1.06-.025.017-1.578,1.045a1.071,1.071,0,1,0,1.182,1.786l.5-.328h0l1.716-1.136A2.824,2.824,0,0,1,66.1,32.805Zm0,0" transform="translate(0 0)"/></g></g></svg>