<svg xmlns="http://www.w3.org/2000/svg" width="95.667" height="95.667" viewBox="0 0 95.667 95.667"><path d="M46.829,100.372H13.13a5.616,5.616,0,0,1-5.616-5.616V13.13A5.616,5.616,0,0,1,13.13,7.514h33.7a5.616,5.616,0,0,1,5.616,5.616V94.756A5.616,5.616,0,0,1,46.829,100.372Z" transform="translate(-6.11 -6.11)" fill="#e0e0e0"/><rect width="44.931" height="62.904" transform="translate(1.404 12.637)" fill="#1bb9db"/><circle cx="3.744" cy="3.744" r="3.744" transform="translate(20.126 81.157)" fill="#b0bec5"/><path d="M46.829,460H13.13a5.616,5.616,0,0,1-5.616-5.617v3.744a5.616,5.616,0,0,0,5.616,5.617h33.7a5.616,5.616,0,0,0,5.616-5.617v-3.744A5.616,5.616,0,0,1,46.829,460Z" transform="translate(-6.11 -369.485)" fill="#bdbdbd"/><path d="M111.455,438.092a3.74,3.74,0,0,1,3.239,1.872,3.744,3.744,0,1,0-6.478,0A3.739,3.739,0,0,1,111.455,438.092Z" transform="translate(-87.585 -353.191)" fill="#90a4ae"/><rect width="44.931" height="3.744" transform="translate(1.404 12.637)" fill="#077fa6"/><g transform="translate(7.02 18.253)"><rect width="33.699" height="24.338" fill="#fdcc15"/><rect width="33.699" height="7.489" transform="translate(0 29.954)" fill="#fdcc15"/><rect width="14.041" height="7.489" transform="translate(0 43.059)" fill="#fdcc15"/></g><rect width="33.699" height="22.466" transform="translate(60.564 1.404)" fill="#c45e9a"/><rect width="33.699" height="22.466" transform="translate(60.564 71.797)" fill="#9ccc65"/><rect width="33.699" height="22.466" transform="translate(60.564 36.6)" fill="#f44336"/><path d="M105.344,437.13a5.148,5.148,0,1,0-5.148-5.148A5.154,5.154,0,0,0,105.344,437.13Zm0-7.489a2.34,2.34,0,1,1-2.34,2.34A2.343,2.343,0,0,1,105.344,429.641Z" transform="translate(-81.475 -347.08)"/><path d="M46.908,320.626H30.059v10.3H46.908ZM44.1,328.115H32.867v-4.68H44.1Z" transform="translate(-24.443 -260.717)"/><path d="M83.6,0V11.233h-6.74V29.018h-10.3V16.849H30.059V44H66.566V31.826h13.1V14.041H83.6V25.274h36.507V0ZM60.819,19.657,48.312,28.69,35.805,19.657ZM32.867,21l13.047,9.423L32.867,39.845Zm2.938,20.188,12.507-9.033,12.507,9.033Zm27.952-1.342L50.711,30.423,63.758,21ZM117.3,22.466H86.41V2.808H117.3Z" transform="translate(-24.443)"/><path d="M244.513,358.638h-3.931V340.665H227.945v2.808h9.829v17.973h6.74v11.233H281.02V347.4H244.513Zm2.808-8.425h30.89V369.87h-30.89Z" transform="translate(-185.354 -277.012)"/><path d="M44.931,74.137H2.808v-60.1H44.931v11.7h2.808V7.02A7.028,7.028,0,0,0,40.719,0H7.02A7.028,7.028,0,0,0,0,7.02V88.646a7.028,7.028,0,0,0,7.02,7.021h33.7a7.028,7.028,0,0,0,7.02-7.02V69.737H44.931ZM2.808,7.02A4.217,4.217,0,0,1,7.02,2.808h33.7A4.217,4.217,0,0,1,44.931,7.02v4.212H2.808ZM44.931,88.646a4.217,4.217,0,0,1-4.212,4.212H7.02a4.217,4.217,0,0,1-4.212-4.212v-11.7H44.931v11.7Z"/><rect width="2.808" height="12.169" transform="translate(44.931 35.103)"/><rect width="2.808" height="3.744" transform="translate(44.931 56.632)"/><path d="M83.6,199.6h-6.74v4.119h-10.3v-3.744H30.059v10.3H66.566v-3.744h13.1v-4.119H83.6v11.233h36.507V188.368H83.6Zm-19.845,7.863H32.867v-4.68h30.89ZM86.41,191.176H117.3v19.657H86.41Z" transform="translate(-24.443 -153.172)"/><g transform="translate(12.637 5.616)"><path d="M90.1,32.867H87.29V30.059H90.1Zm-5.616,0H81.673V30.059h2.808Zm-5.616,0H67.632V30.059H78.865v2.808Z" transform="translate(-67.632 -30.059)" fill="#fff"/><rect width="14.228" height="2.808" transform="translate(12.731 55.228)" fill="#fff"/><path d="M146.249,358.5h-2.808V355.7h2.808Zm-5.616,0h-4.868V355.7h4.868Z" transform="translate(-123.034 -294.85)" fill="#fff"/><path d="M351.274,48.552l-5.92-5.693,5.92-5.692,1.946,2.024-3.815,3.668,3.815,3.668Z" transform="translate(-293.462 -35.839)" fill="#fff"/><path d="M444.045,48.616l-1.986-1.985,3.688-3.688-3.688-3.687,1.986-1.986,5.673,5.673Z" transform="translate(-372.098 -35.923)" fill="#fff"/><rect width="9.546" height="2.808" transform="translate(62.465 11.425) rotate(-78.691)" fill="#fff"/><path d="M351.274,425.287l-5.92-5.692,5.92-5.693,1.946,2.024-3.815,3.668,3.815,3.668Z" transform="translate(-293.462 -342.182)" fill="#fff"/><path d="M444.045,425.352l-1.986-1.986,3.688-3.687-3.688-3.688,1.986-1.985,5.673,5.673Z" transform="translate(-372.098 -342.266)" fill="#fff"/><rect width="9.546" height="2.808" transform="translate(62.467 81.819) rotate(-78.691)" fill="#fff"/><path d="M351.274,236.919l-5.92-5.693,5.92-5.693,1.946,2.024-3.815,3.668,3.815,3.668Z" transform="translate(-293.462 -189.01)" fill="#fff"/><path d="M444.045,236.984,442.059,235l3.688-3.688-3.688-3.688,1.986-1.985,5.673,5.673Z" transform="translate(-372.098 -189.094)" fill="#fff"/><rect width="9.546" height="2.808" transform="translate(62.466 46.621) rotate(-78.691)" fill="#fff"/></g></svg>