<svg xmlns="http://www.w3.org/2000/svg" width="295" height="121" viewBox="0 0 295 121"><g transform="translate(-1125.051 -789.361)"><rect width="295" height="121" transform="translate(1125.051 789.361)" fill="#f5fef9"/><g transform="translate(1217.083 804.932)"><path d="M101.641,37.106H84.807v4.118a1.624,1.624,0,0,1-1.623,1.617H36.455a7.57,7.57,0,0,1-3.047-.775l-7.53-4.1c-.43-.235-.622-.551-.58-.859H8.456a.96.96,0,0,0-.957.957v78.507a.96.96,0,0,0,.957.957h93.184a.96.96,0,0,0,.957-.957V38.063a.96.96,0,0,0-.957-.957Zm0,0" transform="translate(-6.065 -29.602)" fill="#e6e9ed"/><path d="M220.976,314.375a10.852,10.852,0,1,1-10.851-10.965A10.908,10.908,0,0,1,220.976,314.375Zm0,0" transform="translate(-161.144 -244.951)" fill="#ffc502"/><path d="M78.434,314.375A10.852,10.852,0,1,1,67.582,303.41,10.908,10.908,0,0,1,78.434,314.375Zm0,0" transform="translate(-45.875 -244.951)" fill="#89c947"/><path d="M363.547,314.375A10.852,10.852,0,1,1,352.7,303.41,10.909,10.909,0,0,1,363.547,314.375Zm0,0" transform="translate(-276.435 -244.951)" fill="#ef5050"/><g transform="translate(10.855 21.022)"><path d="M67.828,118.317a.576.576,0,0,1-.574.574H57.3a.575.575,0,0,1-.574-.574v-9.989a.576.576,0,0,1,.574-.574h9.949a.576.576,0,0,1,.574.574Zm0,0" transform="translate(-56.731 -107.754)" fill="#fcdb67"/><path d="M67.828,213.575a.576.576,0,0,1-.574.574H57.3a.576.576,0,0,1-.574-.574v-9.989a.575.575,0,0,1,.574-.574h9.949a.576.576,0,0,1,.574.574Zm0,0" transform="translate(-56.731 -184.785)" fill="#fcdb67"/><path d="M287.941,118.317a.576.576,0,0,1-.574.574h-9.949a.575.575,0,0,1-.574-.574v-9.989a.576.576,0,0,1,.574-.574h9.949a.576.576,0,0,1,.574.574Zm0,0" transform="translate(-234.727 -107.754)" fill="#fcdb67"/><path d="M287.941,213.575a.576.576,0,0,1-.574.574h-9.949a.576.576,0,0,1-.574-.574v-9.989a.575.575,0,0,1,.574-.574h9.949a.576.576,0,0,1,.574.574Zm0,0" transform="translate(-234.727 -184.785)" fill="#fcdb67"/></g><path d="M158.37,8a1.625,1.625,0,0,1,1.623,1.617v8.072a1.625,1.625,0,0,1-1.623,1.617h-46.73a7.558,7.558,0,0,1-3.047-.776l-7.53-4.1c-.783-.427-.783-1.124,0-1.551l7.53-4.1A7.558,7.558,0,0,1,111.641,8Zm0,0" transform="translate(-81.251 -6.065)" fill="#ffc502"/><path d="M112.295,8h-.654a7.558,7.558,0,0,0-3.047.776l-7.53,4.1c-.783.427-.783,1.124,0,1.551l7.53,4.1a7.558,7.558,0,0,0,3.047.776h.654Zm0,0" transform="translate(-81.251 -6.065)" fill="#ffd5b3"/><path d="M106.126,19.082l-5.062,2.757c-.783.427-.783,1.124,0,1.551l5.062,2.757Zm0,0" transform="translate(-81.251 -15.027)" fill="#775436"/><path d="M371.754,17.688V9.617A1.625,1.625,0,0,0,370.131,8h-7.788V19.306h7.788a1.625,1.625,0,0,0,1.623-1.617Zm0,0" transform="translate(-293.011 -6.065)" fill="#fb8276"/><path d="M178.463,29.609H173.2a1.435,1.435,0,0,0,0,2.87h4.784v77.549h-74.05a1.435,1.435,0,1,0,0,2.87h74.528a2.394,2.394,0,0,0,2.392-2.392V32A2.394,2.394,0,0,0,178.463,29.609Zm0,0" transform="translate(-82.887 -23.54)"/><path d="M14.159,86.489H2.87V8.94H18.286a2.807,2.807,0,0,0,.841.683l7.53,4.1a8.942,8.942,0,0,0,3.733.951H77.12a3.059,3.059,0,0,0,3.058-3.053V8.94h3.44a1.435,1.435,0,1,0,0-2.87h-3.44V3.551A3.058,3.058,0,0,0,77.12.5H30.39a8.942,8.942,0,0,0-3.733.951l-7.531,4.1a2.923,2.923,0,0,0-.693.518H2.392A2.394,2.394,0,0,0,0,8.461V86.967a2.394,2.394,0,0,0,2.392,2.392H14.159a1.435,1.435,0,0,0,0-2.87ZM70.767,3.37H77.12a.19.19,0,0,1,.188.182v8.072a.19.19,0,0,1-.188.182H70.767Zm-38.288,0H67.9V6.153H32.479Zm0,5.653H67.9v2.783H32.479ZM26.31,4.907l1.721-.937a5.986,5.986,0,0,1,1.579-.513v8.261A6.029,6.029,0,0,1,28.03,11.2l-1.72-.937ZM23.44,6.471V8.7l-2.05-1.117Zm0,0"/><path d="M204.061,320.713a12.241,12.241,0,0,0,11.738-8.729,1.435,1.435,0,0,0-2.744-.842,9.385,9.385,0,0,1-8.994,6.7,9.53,9.53,0,1,1,8.883-12.7,1.435,1.435,0,0,0,2.711-.943,12.31,12.31,0,1,0-11.594,16.51Zm0,0" transform="translate(-155.079 -238.889)"/><path d="M227.214,341.376v-1.129a1.435,1.435,0,0,0-2.87,0v1.129a1.435,1.435,0,1,0,2.87,0Zm0,0" transform="translate(-181.417 -273.579)"/><path d="M275.5,341.376v-1.129a1.435,1.435,0,0,0-2.87,0v1.129a1.435,1.435,0,1,0,2.87,0Zm0,0" transform="translate(-220.466 -273.579)"/><path d="M233.3,374.69h6.362a1.435,1.435,0,0,0,0-2.87H233.3a1.435,1.435,0,0,0,0,2.87Zm0,0" transform="translate(-187.498 -300.271)"/><path d="M61.517,320.71a12.4,12.4,0,1,0-12.287-12.4A12.357,12.357,0,0,0,61.517,320.71Zm0-21.929a9.53,9.53,0,1,1-9.417,9.53A9.484,9.484,0,0,1,61.517,298.781Zm0,0" transform="translate(-39.81 -238.886)"/><path d="M83.236,342.811a1.435,1.435,0,0,0,1.435-1.435v-1.129a1.435,1.435,0,0,0-2.87,0v1.129A1.435,1.435,0,0,0,83.236,342.811Zm0,0" transform="translate(-66.149 -273.579)"/><path d="M131.525,342.811a1.435,1.435,0,0,0,1.435-1.435v-1.129a1.435,1.435,0,0,0-2.87,0v1.129A1.435,1.435,0,0,0,131.525,342.811Zm0,0" transform="translate(-105.198 -273.579)"/><path d="M87.891,368.349a4.9,4.9,0,0,0,9.78,0,1.435,1.435,0,0,0-2.87,0,2.055,2.055,0,0,1-4.04,0,1.435,1.435,0,0,0-2.87,0Zm0,0" transform="translate(-71.073 -296.303)"/><path d="M346.63,320.71a12.4,12.4,0,1,0-12.286-12.4A12.357,12.357,0,0,0,346.63,320.71Zm0-21.929a9.53,9.53,0,1,1-9.416,9.53A9.485,9.485,0,0,1,346.63,298.781Zm0,0" transform="translate(-270.37 -238.886)"/><path d="M368.345,342.811a1.435,1.435,0,0,0,1.435-1.435v-1.129a1.435,1.435,0,0,0-2.87,0v1.129A1.435,1.435,0,0,0,368.345,342.811Zm0,0" transform="translate(-296.704 -273.579)"/><path d="M416.638,342.811a1.435,1.435,0,0,0,1.435-1.435v-1.129a1.435,1.435,0,0,0-2.87,0v1.129A1.435,1.435,0,0,0,416.638,342.811Zm0,0" transform="translate(-335.757 -273.579)"/><path d="M373,368.255a1.435,1.435,0,0,0,2.87,0,2.056,2.056,0,0,1,4.041,0,1.435,1.435,0,0,0,2.87,0,4.9,4.9,0,0,0-9.781,0Zm0,0" transform="translate(-301.629 -293.713)"/><path d="M51.24,114.265h9.949a2.011,2.011,0,0,0,2.009-2.009v-8.284l.566-.57a1.434,1.434,0,0,0-1.055-2.445,2,2,0,0,0-1.52-.7H51.24a2.011,2.011,0,0,0-2.009,2.009v9.989a2.01,2.01,0,0,0,2.009,2.008Zm.861-11.138h7.891l-3.52,3.545L55.312,105.5a1.435,1.435,0,1,0-2.038,2.022l1.773,1.786a1.988,1.988,0,0,0,1.423.593h0a1.988,1.988,0,0,0,1.422-.592l2.434-2.451v4.532H52.1Zm0,0" transform="translate(-39.811 -80.67)"/><path d="M139.732,119.948h17.1a1.435,1.435,0,1,0,0-2.87h-17.1a1.435,1.435,0,0,0,0,2.87Zm0,0" transform="translate(-111.835 -94.272)"/><path d="M139.732,144.511h9.737a1.435,1.435,0,0,0,0-2.87h-9.737a1.435,1.435,0,0,0,0,2.87Zm0,0" transform="translate(-111.835 -114.135)"/><path d="M49.23,207.511a2.011,2.011,0,0,0,2.009,2.009h9.949a2.012,2.012,0,0,0,2.009-2.009v-9.989a2.012,2.012,0,0,0-2.009-2.009H51.24a2.011,2.011,0,0,0-2.009,2.009Zm2.87-9.128h8.227v8.267H52.1Zm0,0" transform="translate(-39.811 -157.698)"/><path d="M139.732,215.206h17.1a1.435,1.435,0,1,0,0-2.87h-17.1a1.435,1.435,0,0,0,0,2.87Zm0,0" transform="translate(-111.835 -171.303)"/><path d="M150.9,238.33a1.434,1.434,0,0,0-1.435-1.435h-9.737a1.435,1.435,0,1,0,0,2.87h9.737A1.435,1.435,0,0,0,150.9,238.33Zm0,0" transform="translate(-111.835 -191.163)"/><path d="M271.353,114.262H281.3a2.011,2.011,0,0,0,2.009-2.009v-9.989a2.012,2.012,0,0,0-2.009-2.009h-9.949a2.011,2.011,0,0,0-2.009,2.009v9.989A2.011,2.011,0,0,0,271.353,114.262Zm.861-11.138h8.227v8.267h-8.227Zm0,0" transform="translate(-217.807 -80.667)"/><path d="M358.406,118.513a1.435,1.435,0,0,0,1.435,1.435h17.1a1.435,1.435,0,1,0,0-2.87h-17.1A1.435,1.435,0,0,0,358.406,118.513Zm0,0" transform="translate(-289.827 -94.272)"/><path d="M359.841,144.511h9.738a1.435,1.435,0,0,0,0-2.87h-9.738a1.435,1.435,0,0,0,0,2.87Zm0,0" transform="translate(-289.827 -114.135)"/><path d="M283.311,207.511v-9.989a2.012,2.012,0,0,0-2.009-2.009h-9.949a2.011,2.011,0,0,0-2.009,2.009v9.989a2.011,2.011,0,0,0,2.009,2.009H281.3A2.012,2.012,0,0,0,283.311,207.511Zm-2.87-.861h-8.227v-8.267h8.227Zm0,0" transform="translate(-217.807 -157.698)"/><path d="M376.944,212.336h-17.1a1.435,1.435,0,0,0,0,2.87h17.1a1.435,1.435,0,1,0,0-2.87Zm0,0" transform="translate(-289.831 -171.303)"/><path d="M369.579,239.765a1.435,1.435,0,0,0,0-2.87h-9.738a1.435,1.435,0,1,0,0,2.87Zm0,0" transform="translate(-289.828 -191.163)"/></g></g></svg>