<svg xmlns="http://www.w3.org/2000/svg" xmlns:xlink="http://www.w3.org/1999/xlink" width="136" height="136" viewBox="0 0 136 136"><defs><filter id="a" x="0" y="0" width="136" height="136" filterUnits="userSpaceOnUse"><feOffset dy="3" input="SourceAlpha"/><feGaussianBlur stdDeviation="3" result="b"/><feFlood flood-opacity="0.161"/><feComposite operator="in" in2="b"/><feComposite in="SourceGraphic"/></filter></defs><g transform="translate(4867 3570.612)"><g transform="matrix(1, 0, 0, 1, -4867, -3570.61)" filter="url(#a)"><circle cx="59" cy="59" r="59" transform="translate(9 6)" fill="#fff"/></g><g transform="translate(-4829 -3536.673)"><circle cx="18" cy="18" r="18" transform="translate(3 2)" fill="#d9e1e6"/><path d="M34.45,8.066A17.987,17.987,0,0,1,6,29.934,17.99,17.99,0,1,0,34.45,8.066Z" fill="#c0c8cc"/><circle cx="9" cy="9" r="9" transform="translate(43 18)" fill="#ffe66d"/><circle cx="12" cy="12" r="12" transform="translate(28 38)" fill="#d9e1e6"/><circle cx="8" cy="8" r="8" transform="translate(7 42)" fill="#7cb2f8"/><path d="M9,15h6V28H9Z" fill="#8197bf"/><path d="M35,17.5A1.5,1.5,0,0,0,33.5,16H26l1.37-5.482a2.026,2.026,0,0,0-3.863-1.2L21.973,13.4A4,4,0,0,1,18.228,16H15V27h1.856L18,28H30.5a1.5,1.5,0,1,0,0-3h1a1.5,1.5,0,1,0,0-3h1a1.5,1.5,0,0,0,0-3h1A1.5,1.5,0,0,0,35,17.5Z" fill="#ffdbac"/><path d="M58.251,20.534A8.992,8.992,0,0,1,44.193,31.466,9,9,0,1,0,58.251,20.534Z" fill="#e6cf62"/><path d="M48.624,41.668a11.989,11.989,0,0,1-18.8,14.664,11.991,11.991,0,1,0,18.8-14.664Z" fill="#c0c8cc"/><path d="M20.472,44.175a7.995,7.995,0,0,1-12.5,9.65,8,8,0,1,0,12.5-9.65Z" fill="#6f9fde"/><path d="M46.024,45.815a3.2,3.2,0,0,0-4.715,0L40,47.206l-1.309-1.391a3.2,3.2,0,0,0-4.715,0,3.7,3.7,0,0,0,0,5.008L40,57.222l6.024-6.4a3.7,3.7,0,0,0,0-5.007Z" fill="#d98285"/><path d="M40,20A19,19,0,1,0,21,39,19,19,0,0,0,40,20ZM21,37A17,17,0,1,1,38,20,17,17,0,0,1,21,37Z"/><path d="M40,63A13,13,0,1,0,27,50,13,13,0,0,0,40,63Zm0-24A11,11,0,1,1,29,50,11,11,0,0,1,40,39Z"/><path d="M6,50a9,9,0,1,0,9-9,9,9,0,0,0-9,9Zm16,0a7,7,0,1,1-7-7,7,7,0,0,1,7,7Z"/><path d="M48,23h2v2H48Z"/><path d="M54,23h2v2H54Z"/><path d="M52,31a3,3,0,0,1-3-3H47a5,5,0,0,0,10,0H55a3,3,0,0,1-3,3Z"/><path d="M62,27A10,10,0,1,0,52,37,10,10,0,0,0,62,27ZM52,35a8,8,0,1,1,8-8A8,8,0,0,1,52,35Z"/><path d="M36,17.5A2.5,2.5,0,0,0,33.5,15H27.281l1.06-4.239a3.027,3.027,0,0,0-5.771-1.8l-1.533,4.089A3.013,3.013,0,0,1,18.228,15H16a1,1,0,0,0-1-1H9a1,1,0,0,0-1,1V28a1,1,0,0,0,1,1h6a1,1,0,0,0,1-1h.481l.861.752A1,1,0,0,0,18,29H30.5a2.485,2.485,0,0,0,2.329-3.391,2.465,2.465,0,0,0,1-3,2.465,2.465,0,0,0,1-3A2.494,2.494,0,0,0,36,17.5ZM14,27H10V16h4Zm19.5-9H29v2h3.5a.5.5,0,0,1,0,1H29v2h2.5a.5.5,0,0,1,0,1H29v2h1.5a.5.5,0,0,1,0,1H18.375l-.861-.751A1,1,0,0,0,16.857,26H16V17h2.228a5.023,5.023,0,0,0,4.682-3.245l1.533-4.088A1.067,1.067,0,0,1,26.214,9.4a1.016,1.016,0,0,1,.186.88l-1.37,5.482A1,1,0,0,0,26,17h7.5a.5.5,0,0,1,0,1Z"/><path d="M39.272,57.908a1,1,0,0,0,1.456,0l6.023-6.4a4.716,4.716,0,0,0,0-6.38,4.2,4.2,0,0,0-6.169,0L40,45.747l-.582-.618a4.2,4.2,0,0,0-6.169,0,4.716,4.716,0,0,0,0,6.38ZM34.7,46.5a2.2,2.2,0,0,1,3.257,0l1.31,1.392a1.031,1.031,0,0,0,1.456,0l1.31-1.392a2.248,2.248,0,0,1,3.257,0,2.689,2.689,0,0,1,0,3.638L40,55.763l-5.3-5.625a2.689,2.689,0,0,1,.005-3.638Z"/><path d="M14,46v3H11v2h3v3h2V51h3V49H16V46Z"/></g></g></svg>